<?xml version="1.0" encoding="UTF-8" standalone="no"?>
<svg
   xmlns:dc="http://purl.org/dc/elements/1.1/"
   xmlns:cc="http://creativecommons.org/ns#"
   xmlns:rdf="http://www.w3.org/1999/02/22-rdf-syntax-ns#"
   xmlns:svg="http://www.w3.org/2000/svg"
   xmlns="http://www.w3.org/2000/svg"
   viewBox="0 0 666.88 666.88"
   height="666.88"
   width="666.88"
   xml:space="preserve"
   id="svg2"
   version="1.1"><metadata
     id="metadata8"><rdf:RDF><cc:Work
         rdf:about=""><dc:format>image/svg+xml</dc:format><dc:type
           rdf:resource="http://purl.org/dc/dcmitype/StillImage" /></cc:Work></rdf:RDF></metadata><defs
     id="defs6" /><g
     transform="matrix(1.3333333,0,0,-1.3333333,0,666.88)"
     id="g10"><g
       transform="scale(0.1)"
       id="g12"><path
         id="path14"
         style="fill:#ffffff;fill-opacity:1;fill-rule:evenodd;stroke:none"
         d="M 0,0 H 5001.6 V 5001.6 H 0 V 0" /><path
         id="path16"
         style="fill:#c2c4c2;fill-opacity:1;fill-rule:evenodd;stroke:none"
         d="m 1006.67,393.469 c 212.19,0 385.25,27.39 385.25,60.972 0,33.59 -173.06,60.989 -385.25,60.989 -212.19,0 -385.248,-27.399 -385.248,-60.989 0,-33.582 173.058,-60.972 385.248,-60.972" /><path
         id="path18"
         style="fill:#246734;fill-opacity:1;fill-rule:evenodd;stroke:none"
         d="m 1429.12,1567.39 c 76.34,-530.74 -232.73,-360.35 -378.8,-798.558 -2.54,512.228 366.48,281.468 378.8,798.558" /><path
         id="path20"
         style="fill:#246734;fill-opacity:1;fill-rule:evenodd;stroke:none"
         d="M 968.285,784.391 C 984.215,1289.32 552.773,1575.05 553.629,1953.85 609.086,1630.34 1095.02,1458.12 968.285,784.391" /><path
         id="path22"
         style="fill:#246734;fill-opacity:1;fill-rule:evenodd;stroke:none"
         d="m 1021.36,835.059 c 99.78,350.651 149.02,892.181 93.54,1123.431 140.38,-198.86 140.34,-767.93 -93.54,-1123.431" /><path
         id="path24"
         style="fill:#246734;fill-opacity:1;fill-rule:evenodd;stroke:none"
         d="M 1011.49,815.129 C 1081.9,1381.5 656.367,1828.9 661.891,2179.21 767.48,1846.33 1292.11,1468.31 1011.49,815.129" /><path
         id="path26"
         style="fill:#246734;fill-opacity:1;fill-rule:evenodd;stroke:none"
         d="M 585.375,1701.37 C 535.969,1167.45 818.789,1197.49 986.82,767.219 963.457,1278.93 623.824,1185.57 585.375,1701.37" /><path
         id="path28"
         style="fill:#1e562a;fill-opacity:1;fill-rule:evenodd;stroke:none"
         d="m 1429.12,1567.39 c 76.34,-530.74 -232.73,-360.35 -378.8,-798.558 26.14,472.968 396.3,240.638 378.8,798.558" /><path
         id="path30"
         style="fill:#1e562a;fill-opacity:1;fill-rule:evenodd;stroke:none"
         d="M 968.285,784.391 C 984.215,1289.32 552.773,1575.05 553.629,1953.85 556.137,1631.79 1028.63,1459.93 968.285,784.391" /><path
         id="path32"
         style="fill:#1e562a;fill-opacity:1;fill-rule:evenodd;stroke:none"
         d="m 1021.36,835.059 c 156.52,340.791 186.97,885.571 93.54,1123.431 140.38,-198.86 140.34,-767.93 -93.54,-1123.431" /><path
         id="path34"
         style="fill:#1e562a;fill-opacity:1;fill-rule:evenodd;stroke:none"
         d="M 1011.49,815.129 C 1081.9,1381.5 656.367,1828.9 661.891,2179.21 696.816,1866.31 1178.95,1500.32 1011.49,815.129" /><path
         id="path36"
         style="fill:#1e562a;fill-opacity:1;fill-rule:evenodd;stroke:none"
         d="M 585.375,1701.37 C 535.969,1167.45 818.789,1197.49 986.82,767.219 925.082,1260.03 581.617,1164.77 585.375,1701.37" /><path
         id="path38"
         style="fill:#3b9155;fill-opacity:1;fill-rule:evenodd;stroke:none"
         d="M 1013.17,881.402 C 843.969,1222.61 773.379,1906.16 818.93,2114.98 685.844,1880.79 697.043,1221.64 1013.17,881.402" /><path
         id="path40"
         style="fill:#57c374;fill-opacity:1;fill-rule:evenodd;stroke:none"
         d="m 1065.63,662.652 c -140.763,737.488 86.52,1325.198 -30.49,1798.468 10.36,-438.43 -278.492,-984.6 30.49,-1798.468" /><path
         id="path42"
         style="fill:#3b9155;fill-opacity:1;fill-rule:evenodd;stroke:none"
         d="M 1051.4,808.199 C 1099.22,1439.91 1327.41,1827.75 1348.89,2115.96 1238.52,1805.04 971.953,1471.49 1051.4,808.199" /><path
         id="path44"
         style="fill:#57c374;fill-opacity:1;fill-rule:evenodd;stroke:none"
         d="m 1045.29,782.941 c 214.39,569.379 418.22,594.459 535,858.819 -208.15,-255.98 -435.44,-171.79 -535,-858.819" /><path
         id="path46"
         style="fill:#2f7b46;fill-opacity:1;fill-rule:evenodd;stroke:none"
         d="M 1013.17,881.402 C 843.969,1222.61 773.379,1906.16 818.93,2114.98 729.652,1874.62 766.902,1211.81 1013.17,881.402" /><path
         id="path48"
         style="fill:#49b066;fill-opacity:1;fill-rule:evenodd;stroke:none"
         d="M 1065.63,662.652 C 924.867,1400.14 1152.15,1987.85 1035.14,2461.12 1096.99,1991.73 846.094,1422.73 1065.63,662.652" /><path
         id="path50"
         style="fill:#2f7b46;fill-opacity:1;fill-rule:evenodd;stroke:none"
         d="M 1051.4,808.199 C 1099.22,1439.91 1327.41,1827.75 1348.89,2115.96 1275.54,1787.69 1023.91,1447.14 1051.4,808.199" /><path
         id="path52"
         style="fill:#49b066;fill-opacity:1;fill-rule:evenodd;stroke:none"
         d="m 1045.29,782.941 c 214.39,569.379 418.22,594.459 535,858.819 -172.99,-278.15 -374.44,-210.26 -535,-858.819" /><path
         id="path54"
         style="fill:#f6bd7a;fill-opacity:1;fill-rule:evenodd;stroke:none"
         d="m 703.855,922.211 c 294.606,0 311.015,0 605.625,0 7.78,0 14.47,-2.789 19.96,-8.289 5.48,-5.5 8.24,-12.203 8.21,-19.981 -0.57,-146.5 -9.9,-292.992 -164.39,-439.5 -222.115,0 -111.06,0 -333.17,0 -154.5,146.508 -163.828,293 -164.391,439.5 -0.035,7.778 2.723,14.469 8.207,19.969 5.489,5.512 12.172,8.301 19.949,8.301" /><path
         id="path56"
         style="fill:#f8cd99;fill-opacity:1;fill-rule:evenodd;stroke:none"
         d="M 703.852,922.211 H 1116.51 C 1102.69,748.539 957.398,611.922 780.18,611.922 c -20.078,0 -39.739,1.769 -58.852,5.129 -41.426,92.289 -45.273,184.597 -45.629,276.89 -0.035,7.77 2.723,14.469 8.203,19.969 5.489,5.512 12.176,8.301 19.95,8.301" /><path
         id="path58"
         style="fill:#e6a862;fill-opacity:1;fill-rule:evenodd;stroke:none"
         d="m 1324.74,721.801 c -17.25,-89.121 -57.5,-178.242 -151.48,-267.36 -222.115,0 -111.06,0 -333.17,0 -27.422,26 -50.246,52 -69.285,78.008 44.343,-11.07 91.734,-17.078 141.004,-17.078 185.711,0 345.041,85.141 412.931,206.43" /><path
         id="path60"
         style="fill:#c2c4c2;fill-opacity:1;fill-rule:evenodd;stroke:none"
         d="m 1005.67,2538.43 c 164.21,0 298.13,24.21 298.13,53.88 0,29.69 -133.92,53.89 -298.13,53.89 -164.193,0 -298.119,-24.2 -298.119,-53.89 0,-29.67 133.926,-53.88 298.119,-53.88" /><path
         id="path62"
         style="fill:#559532;fill-opacity:1;fill-rule:evenodd;stroke:none"
         d="m 883.594,3640.89 c -145.953,-121.37 -15.371,-266.74 -0.508,-309.76 18.07,45.06 77.621,164.73 0.508,309.76" /><path
         id="path64"
         style="fill:#4b822f;fill-opacity:1;fill-rule:evenodd;stroke:none"
         d="m 885.73,3680.66 c -29.339,-99.3 -30.574,-213.77 -15.808,-306.36 1.062,-6.66 7.836,-4.9 6.769,1.78 -14.503,90.62 -6.449,196.97 20.289,301.1 4.895,19.04 -6.664,25.93 -11.25,3.48" /><path
         id="path66"
         style="fill:#5fa331;fill-opacity:1;fill-rule:evenodd;stroke:none"
         d="m 918.637,3722.92 c -16.282,121.56 129.923,201.83 182.093,154.11 -34.75,4.9 -59.26,-116.32 -182.093,-154.11" /><path
         id="path68"
         style="fill:#4b822f;fill-opacity:1;fill-rule:evenodd;stroke:none"
         d="m 886.914,3678.75 c 39.047,79.28 106.332,152.19 171.386,199.46 4.27,3.11 7.05,-1.61 2.77,-4.73 -63.218,-45.93 -127.14,-118.76 -164.703,-196.99 -3.101,0.91 -6.25,1.66 -9.453,2.26" /><path
         id="path70"
         style="fill:#559532;fill-opacity:1;fill-rule:evenodd;stroke:none"
         d="m 874.664,3726.17 c 12.277,118.14 -100.355,182.72 -158.426,137.52 36.453,2.21 34.094,-88.17 158.426,-137.52" /><path
         id="path72"
         style="fill:#4b822f;fill-opacity:1;fill-rule:evenodd;stroke:none"
         d="m 900.855,3681.58 c -24.601,68.65 -69.082,122.15 -129.972,178.17 -4.043,3.73 -7.973,-1.47 -3.918,-5.18 59.519,-54.44 99.144,-108.65 121.039,-177.03 4.16,1.63 8.449,2.98 12.851,4.04" /><path
         id="path74"
         style="fill:#5fa331;fill-opacity:1;fill-rule:evenodd;stroke:none"
         d="m 817.973,3718.02 c -85.715,131.25 -256.91,85.56 -267.559,-4.17 29.543,33.74 117.141,-61.8 267.559,4.17" /><path
         id="path76"
         style="fill:#4b822f;fill-opacity:1;fill-rule:evenodd;stroke:none"
         d="m 895.652,3691.31 c -106.429,46.87 -186.3,71.54 -291.187,62.76 -6.727,-0.56 -5.477,-7.44 1.258,-6.88 103.039,8.6 182.113,-19.41 285.761,-67.31 15.297,-3.25 13.614,7.62 4.168,11.43" /><path
         id="path78"
         style="fill:#559532;fill-opacity:1;fill-rule:evenodd;stroke:none"
         d="m 791.406,3639.69 c -179,65.44 -222.527,-131.42 -266.933,-216.42 79.906,3.92 221.25,49.85 266.933,216.42" /><path
         id="path80"
         style="fill:#4b822f;fill-opacity:1;fill-rule:evenodd;stroke:none"
         d="m 894.148,3692.55 c -120.05,-37.07 -237.386,-128.33 -312.031,-218.56 -4.304,-5.19 1.488,-9.11 5.797,-3.91 72.774,87.96 190.438,174.28 308.785,209.97 -1.109,4.06 -1.969,8.22 -2.551,12.5" /><path
         id="path82"
         style="fill:#559532;fill-opacity:1;fill-rule:evenodd;stroke:none"
         d="m 1077.77,2790.77 c -2.56,-17.81 -35.23,-13.77 -32.69,4.03 34.82,240.43 -111.99,913.37 -273.775,1099.81 -11.762,13.56 1.785,30.76 13.554,17.2 173.407,-199.82 330.351,-862.52 292.911,-1121.04" /><path
         id="path84"
         style="fill:#559532;fill-opacity:1;fill-rule:evenodd;stroke:none"
         d="m 1127.43,3954.65 c 182.91,4.2 180.05,-184.1 196.48,-224.79 -41.66,21.31 -160.7,70.58 -196.48,224.79" /><path
         id="path86"
         style="fill:#4b822f;fill-opacity:1;fill-rule:evenodd;stroke:none"
         d="m 1100.7,3982.19 c 84.19,-53.58 157.56,-135.98 205.45,-212.62 3.44,-5.52 -2.6,-8.52 -6.05,-2.99 -46.83,75.03 -120.02,147.22 -205.37,205.96 -15.61,10.74 -11.58,23.06 5.97,9.65" /><path
         id="path88"
         style="fill:#5fa331;fill-opacity:1;fill-rule:evenodd;stroke:none"
         d="m 1050.03,3992.07 c -65.128,98.65 -222.198,64.42 -229.897,-3.29 22.152,25.56 116.715,-47.01 229.897,3.29" /><path
         id="path90"
         style="fill:#4b822f;fill-opacity:1;fill-rule:evenodd;stroke:none"
         d="m 1101.04,3980.06 c -78.56,32.89 -173.622,43.27 -250.813,36.44 -5.075,-0.44 -4.106,-5.62 0.972,-5.18 75.024,6.64 167.591,-5.83 244.411,-38.89 1.68,2.62 3.49,5.17 5.43,7.63" /><path
         id="path92"
         style="fill:#559532;fill-opacity:1;fill-rule:evenodd;stroke:none"
         d="m 1079.94,4022.27 c -83.729,78.09 -42.77,196.33 28.05,200.24 -27.89,-21.47 31.05,-85.65 -28.05,-200.24" /><path
         id="path94"
         style="fill:#4b822f;fill-opacity:1;fill-rule:evenodd;stroke:none"
         d="m 1089.13,3973.29 c -25.59,65.46 -27.14,132.5 -18.36,211.77 0.58,5.26 6.73,3.98 6.13,-1.29 -8.78,-77.24 -3.26,-141.73 24.13,-205.28 -4.06,-1.45 -8.04,-3.19 -11.9,-5.2" /><path
         id="path96"
         style="fill:#5fa331;fill-opacity:1;fill-rule:evenodd;stroke:none"
         d="m 1126.28,4052.25 c -20.79,149.64 132.53,224.82 197.08,166.36 -42.82,5.82 -46,-119.07 -197.08,-166.36" /><path
         id="path98"
         style="fill:#4b822f;fill-opacity:1;fill-rule:evenodd;stroke:none"
         d="m 1086.75,3983.65 c 47.67,101.45 90.09,169.94 171.87,229.97 5.24,3.85 8.69,-1.95 3.44,-5.8 -80.32,-58.98 -120.05,-129.4 -165.05,-229.83 -9.06,-12.05 -14.72,-3.08 -10.26,5.66" /><path
         id="path100"
         style="fill:#559532;fill-opacity:1;fill-rule:evenodd;stroke:none"
         d="m 1195.18,4012.14 c 88.65,160.89 244.92,45.39 331,11.73 -60.55,-47.74 -192.34,-103.86 -331,-11.73" /><path
         id="path102"
         style="fill:#4b822f;fill-opacity:1;fill-rule:evenodd;stroke:none"
         d="m 1087.06,3985.51 c 110.71,49.06 253.76,57.03 365.12,38.72 6.42,-1.05 4.69,-7.57 -1.74,-6.51 -108.56,17.85 -248.73,6.08 -357.32,-42.91 -1.77,3.65 -3.78,7.22 -6.06,10.7" /><path
         id="path104"
         style="fill:#559532;fill-opacity:1;fill-rule:evenodd;stroke:none"
         d="m 1036.49,3107.23 c -7.24,-16.47 -37.635,-3.8 -30.39,12.67 98.14,222.23 137.53,909.87 31.78,1132.92 -7.69,16.22 9.99,29.16 17.68,12.93 113.34,-239.06 86.46,-919.57 -19.07,-1158.52" /><path
         id="path106"
         style="fill:#e18352;fill-opacity:1;fill-rule:evenodd;stroke:none"
         d="m 849.41,2592.31 h 312.53 l 102.62,512.28 c 1.4,6.99 0.24,13.73 -3.33,19.4 -3.57,5.67 -8.56,8.68 -14.36,8.68 H 764.48 c -5.796,0 -10.789,-3.01 -14.363,-8.68 -3.57,-5.67 -4.73,-12.41 -3.332,-19.4 L 849.41,2592.31" /><path
         id="path108"
         style="fill:#ce7546;fill-opacity:1;fill-rule:evenodd;stroke:none"
         d="m 836.148,2658.51 v 0 c 132.407,-44.68 320.862,-14.67 373.902,174 l -48.11,-240.2 H 849.41 l -13.262,66.2" /><path
         id="path110"
         style="fill:#ee9767;fill-opacity:1;fill-rule:evenodd;stroke:none"
         d="M 1089.04,3132.67 H 764.48 c -5.796,0 -10.789,-3.01 -14.363,-8.68 -3.57,-5.67 -4.73,-12.41 -3.332,-19.4 L 786.77,2905 c 11.195,-1.22 22.605,-1.85 34.187,-1.85 148.059,0 268.083,102.77 268.083,229.52" /><path
         id="path112"
         style="fill:#6cbb36;fill-opacity:1;fill-rule:evenodd;stroke:none"
         d="m 1016.38,4211.77 c -195.321,-77.29 -193.075,-362.94 -78.134,-401.01 -36.355,47.83 124.344,185.82 78.134,401.01" /><path
         id="path114"
         style="fill:#559532;fill-opacity:1;fill-rule:evenodd;stroke:none"
         d="m 1033.71,4262.23 c -74.222,-117.22 -117.788,-264.3 -132.698,-389.04 -1.074,-8.98 8.304,-9.19 9.375,-0.2 14.531,122.12 63.91,256.23 136.543,380.63 13.28,22.76 0.93,35.87 -13.22,8.61" /><path
         id="path116"
         style="fill:#6cbb36;fill-opacity:1;fill-rule:evenodd;stroke:none"
         d="m 1091.62,4304.64 c 23.58,162.65 241.44,212.49 291.18,131.87 -42.99,19.04 -119.03,-128.21 -291.18,-131.87" /><path
         id="path118"
         style="fill:#559532;fill-opacity:1;fill-rule:evenodd;stroke:none"
         d="m 1034.54,4259.34 c 79.39,87.87 192.84,157.17 294,194.24 6.66,2.44 8.5,-4.66 1.85,-7.1 -98.32,-36.03 -207.41,-106.47 -284.5,-193.52 -3.66,2.31 -7.45,4.43 -11.35,6.38" /><path
         id="path120"
         style="fill:#7ecd47;fill-opacity:1;fill-rule:evenodd;stroke:none"
         d="m 1036.12,4324.95 c 59.15,147.76 -62.335,272.3 -153.757,235.33 47.793,-10.52 11.621,-126.14 153.757,-235.33" /><path
         id="path122"
         style="fill:#559532;fill-opacity:1;fill-rule:evenodd;stroke:none"
         d="m 1053.54,4257.88 c -6.54,97.5 -44.25,182.76 -102.185,277.29 -3.851,6.28 -10.824,1.03 -6.957,-5.24 56.752,-91.98 87.952,-176.39 91.092,-272.54 5.96,0.57 11.99,0.74 18.05,0.49" /><path
         id="path124"
         style="fill:#6cbb36;fill-opacity:1;fill-rule:evenodd;stroke:none"
         d="m 960.078,4335.23 c -62.359,200.59 -299.746,204.47 -346.367,92.72 50.437,32.66 128.312,-122.6 346.367,-92.72" /><path
         id="path126"
         style="fill:#559532;fill-opacity:1;fill-rule:evenodd;stroke:none"
         d="m 1050.4,4272.32 c -119.99,99.43 -213.884,160.51 -352.279,187.65 -8.879,1.75 -9.793,-7.58 -0.902,-9.33 135.949,-26.69 227.597,-91.78 343.621,-191.51 18.53,-9.81 20.34,4.82 9.56,13.19" /><path
         id="path128"
         style="fill:#7ecd47;fill-opacity:1;fill-rule:evenodd;stroke:none"
         d="m 895.082,4268.16 c -180.266,180.9 -344.676,-33.46 -446.766,-111.52 99.247,-40.52 296.903,-64.85 446.766,111.52" /><path
         id="path130"
         style="fill:#559532;fill-opacity:1;fill-rule:evenodd;stroke:none"
         d="m 1049.79,4274.12 c -166.782,23.02 -360.974,-21.3 -502.735,-88.55 -8.172,-3.87 -3.36,-11.93 4.824,-8.04 138.203,65.56 329.996,103.69 493.931,79.97 0.95,5.55 2.27,11.1 3.98,16.62" /><path
         id="path132"
         style="fill:#6cbb36;fill-opacity:1;fill-rule:evenodd;stroke:none"
         d="m 768.434,3861.78 c -116.864,-99.7 -47.711,-296.83 40.839,-295.97 -36.48,24.5 42.059,158.01 -40.839,295.97" /><path
         id="path134"
         style="fill:#559532;fill-opacity:1;fill-rule:evenodd;stroke:none"
         d="m 768.484,3900.8 c -23.617,-98.67 -18.953,-210.75 0.25,-300.6 1.379,-6.47 7.922,-4.4 6.532,2.08 -18.844,87.94 -16.414,192.43 4.406,295.69 3.808,18.89 -7.848,25.04 -11.188,2.83" /><path
         id="path136"
         style="fill:#7ecd47;fill-opacity:1;fill-rule:evenodd;stroke:none"
         d="m 798.52,3943.85 c -22.172,118.12 116.785,204.17 170.281,160.15 -34.25,3 -52.02,-116.87 -170.281,-160.15" /><path
         id="path138"
         style="fill:#559532;fill-opacity:1;fill-rule:evenodd;stroke:none"
         d="m 769.742,3899 c 34.145,79.58 96.25,154.38 157.477,203.98 4.019,3.26 6.98,-1.22 2.953,-4.48 -59.504,-48.2 -118.317,-122.75 -151.067,-201.23 -3.082,0.73 -6.199,1.3 -9.363,1.73" /><path
         id="path140"
         style="fill:#6cbb36;fill-opacity:1;fill-rule:evenodd;stroke:none"
         d="m 755.316,3944.77 c 5.957,116.24 -107.574,173.67 -162.086,126.45 35.563,4.03 37.887,-84.53 162.086,-126.45" /><path
         id="path142"
         style="fill:#559532;fill-opacity:1;fill-rule:evenodd;stroke:none"
         d="m 783.238,3902.48 c -27.593,65.92 -73.867,115.99 -136.328,167.7 -4.144,3.43 -7.73,-1.86 -3.57,-5.28 61.035,-50.22 102.598,-101.23 127.527,-167.03 3.988,1.81 8.121,3.34 12.371,4.61" /><path
         id="path144"
         style="fill:#6cbb36;fill-opacity:1;fill-rule:evenodd;stroke:none"
         d="m 700.266,3933.89 c -90.621,124.04 -255.797,70.55 -261.614,-17.81 27.172,34.53 117.797,-54.47 261.614,17.81" /><path
         id="path146"
         style="fill:#559532;fill-opacity:1;fill-rule:evenodd;stroke:none"
         d="m 777.648,3911.73 c -106.558,40.41 -185.984,60.45 -288.171,46.49 -6.551,-0.9 -4.973,-7.57 1.582,-6.67 100.39,13.69 179.211,-9.66 283.097,-51.21 15.137,-2.4 12.93,8.15 3.492,11.39" /><path
         id="path148"
         style="fill:#7ecd47;fill-opacity:1;fill-rule:evenodd;stroke:none"
         d="m 671.156,3872.1 c -167.543,82.51 -230.582,-104.72 -282.742,-182.9 78.262,-4.54 220.789,25.39 282.742,182.9" /><path
         id="path150"
         style="fill:#559532;fill-opacity:1;fill-rule:evenodd;stroke:none"
         d="m 776.801,3912.83 c -120.856,-23.54 -244.735,-100.16 -326.914,-180.24 -4.739,-4.62 0.496,-9.04 5.242,-4.42 80.113,78.06 203.801,149.84 322.851,172.22 -0.656,4.07 -1.054,8.22 -1.179,12.44" /><path
         id="path152"
         style="fill:#559532;fill-opacity:1;fill-rule:evenodd;stroke:none"
         d="m 1054.51,3302.79 c 78.35,-184.51 265.06,-96.66 313.09,-94.71 -40.08,31.98 -142.99,128.58 -313.09,94.71" /><path
         id="path154"
         style="fill:#4b822f;fill-opacity:1;fill-rule:evenodd;stroke:none"
         d="m 1014.94,3317.04 c 91.5,-59.86 206.88,-95.92 305,-109.15 7.06,-0.95 7.34,6.44 0.26,7.39 -96.04,12.89 -201.15,53.38 -298.32,112.08 -17.76,10.74 -28.243,1.15 -6.94,-10.32" /><path
         id="path156"
         style="fill:#5fa331;fill-opacity:1;fill-rule:evenodd;stroke:none"
         d="m 982.211,3363.17 c -127.879,20.5 -164.594,192.76 -100.473,231 -15.511,-33.65 99.614,-95.3 100.473,-231" /><path
         id="path158"
         style="fill:#4b822f;fill-opacity:1;fill-rule:evenodd;stroke:none"
         d="m 1017.23,3317.66 c -68.292,63.59 -121.566,153.81 -149.582,233.96 -1.847,5.27 3.77,6.64 5.614,1.37 27.23,-77.9 81.449,-164.69 149.128,-226.46 -1.85,-2.86 -3.58,-5.82 -5.16,-8.87" /><path
         id="path160"
         style="fill:#559532;fill-opacity:1;fill-rule:evenodd;stroke:none"
         d="m 965.559,3319.69 c -115.739,48.34 -215.301,-45.92 -187.246,-118.39 8.851,37.54 99.523,7.67 187.246,118.39" /><path
         id="path162"
         style="fill:#4b822f;fill-opacity:1;fill-rule:evenodd;stroke:none"
         d="m 1018.61,3332.61 c -76.899,-3.99 -144.528,-32.71 -219.704,-77.25 -4.996,-2.95 -0.937,-8.51 4.047,-5.54 73.156,43.64 140.027,67.22 215.837,68.57 -0.38,4.7 -0.45,9.46 -0.18,14.22" /><path
         id="path164"
         style="fill:#5fa331;fill-opacity:1;fill-rule:evenodd;stroke:none"
         d="M 956.559,3259.89 C 797.766,3213.11 791.91,3026.1 879.414,2988.05 c -25.137,40.13 98.121,99.66 77.145,271.84" /><path
         id="path166"
         style="fill:#4b822f;fill-opacity:1;fill-rule:evenodd;stroke:none"
         d="m 1007.19,3330.31 c -79.756,-93.37 -128.991,-166.64 -152.014,-275.37 -1.481,-6.98 5.863,-7.81 7.34,-0.83 22.636,106.82 75.007,178.26 154.964,268.52 7.94,14.48 -3.57,16.07 -10.29,7.68" /><path
         id="path168"
         style="fill:#559532;fill-opacity:1;fill-rule:evenodd;stroke:none"
         d="m 1027.69,3209.2 c -120.612,-161.12 65.22,-265 137.69,-335.75 20.32,82 16.86,238.9 -137.69,335.75" /><path
         id="path170"
         style="fill:#4b822f;fill-opacity:1;fill-rule:evenodd;stroke:none"
         d="m 1005.48,3329.17 c 0.98,-132.68 57.59,-279.08 126.12,-382 3.95,-5.94 9.68,-1.27 5.72,4.67 -66.81,100.34 -118.32,245.58 -118.43,376.11 -4.44,0.11 -8.91,0.51 -13.41,1.22" /><path
         id="path172"
         style="fill:#6cbb36;fill-opacity:1;fill-rule:evenodd;stroke:none"
         d="m 1077.92,3678.12 c -50.54,-155.1 -272.061,-167.07 -307.084,-79.8 38.82,-25.88 138.066,105.3 307.084,79.8" /><path
         id="path174"
         style="fill:#559532;fill-opacity:1;fill-rule:evenodd;stroke:none"
         d="m 1116.21,3693.98 c -87.3,-63.16 -199.218,-103.98 -295.198,-121.52 -6.91,-1.27 -7.52,5.99 -0.598,7.26 93.957,17.12 195.546,61.82 288.476,124.09 17,11.39 27.76,2.44 7.32,-9.83" /><path
         id="path176"
         style="fill:#6cbb36;fill-opacity:1;fill-rule:evenodd;stroke:none"
         d="m 1146.29,3740.9 c 124.95,26.08 153.13,197.34 88.25,232.02 16.82,-32.4 -93.66,-98.4 -88.25,-232.02" /><path
         id="path178"
         style="fill:#559532;fill-opacity:1;fill-rule:evenodd;stroke:none"
         d="m 1113.93,3694.48 c 64.29,65.75 112.56,157.02 136.44,237.21 1.57,5.27 -4.02,6.36 -5.59,1.08 -23.21,-77.93 -72.57,-165.87 -136.35,-229.8 1.97,-2.73 3.8,-5.56 5.5,-8.49" /><path
         id="path180"
         style="fill:#7ecd47;fill-opacity:1;fill-rule:evenodd;stroke:none"
         d="m 1164.7,3698.86 c 111.69,52.93 214.05,-35.26 189.78,-107.89 -10.44,36.53 -98.32,2.95 -189.78,107.89" /><path
         id="path182"
         style="fill:#559532;fill-opacity:1;fill-rule:evenodd;stroke:none"
         d="m 1111.88,3709.13 c 75.88,-0.38 143.78,-25.52 219.83,-65.89 5.05,-2.68 1.32,-8.34 -3.73,-5.64 -74.02,39.57 -140.93,59.7 -215.62,57.53 0.16,4.64 0,9.33 -0.48,14" /><path
         id="path184"
         style="fill:#6cbb36;fill-opacity:1;fill-rule:evenodd;stroke:none"
         d="m 1176.32,3640.41 c 158.47,-38.72 172.86,-222.53 88.48,-264.03 22.9,40.66 -101.18,93.57 -88.48,264.03" /><path
         id="path186"
         style="fill:#559532;fill-opacity:1;fill-rule:evenodd;stroke:none"
         d="m 1123.22,3707.4 c 82.83,-88.24 134.68,-158.09 162.36,-264.06 1.77,-6.79 -5.41,-7.95 -7.2,-1.14 -27.2,104.09 -82.06,172.01 -164.93,257.15 -8.48,13.9 2.77,16 9.77,8.05" /><path
         id="path188"
         style="fill:#7ecd47;fill-opacity:1;fill-rule:evenodd;stroke:none"
         d="m 1127.45,3586.81 c 148.86,-131.05 -9.4,-268.77 -65.01,-351.65 -36.17,74.99 -64.51,227.03 65.01,351.65" /><path
         id="path190"
         style="fill:#559532;fill-opacity:1;fill-rule:evenodd;stroke:none"
         d="m 1124.64,3707.01 c 25.85,-128.17 0.81,-280.82 -44.52,-393.92 -2.61,-6.53 -9.07,-3.18 -6.46,3.35 44.19,110.27 64.55,260.76 38.3,386.68 4.25,1.01 8.49,2.3 12.68,3.89" /><path
         id="path192"
         style="fill:#c2c4c2;fill-opacity:1;fill-rule:evenodd;stroke:none"
         d="m 2461.67,393.469 c 247.76,0 449.84,25.703 449.84,57.222 0,31.52 -202.08,57.219 -449.84,57.219 -247.77,0 -449.85,-25.699 -449.85,-57.219 0,-31.519 202.08,-57.222 449.85,-57.222" /><path
         id="path194"
         style="fill:#84cf50;fill-opacity:1;fill-rule:evenodd;stroke:none"
         d="m 2485.45,1432.77 c 1.43,-3.5 5.43,-5.19 8.93,-3.77 3.52,1.42 5.2,5.42 3.78,8.93 -23.07,56.62 -32.12,164.74 -27.8,286.61 4.26,120 21.56,253.05 51.32,363.32 0.98,3.66 -1.2,7.43 -4.86,8.41 -3.68,0.97 -7.44,-1.2 -8.41,-4.87 -30.01,-111.18 -47.45,-245.36 -51.75,-366.36 -4.39,-123.66 5,-233.87 28.79,-292.27" /><path
         id="path196"
         style="fill:#95d55f;fill-opacity:1;fill-rule:evenodd;stroke:none"
         d="m 2507.77,2071.19 c 24.08,18.02 65.84,103.27 59.1,155.63 -39.8,-34.69 -65.14,-126.18 -59.1,-155.63" /><path
         id="path198"
         style="fill:#84cf50;fill-opacity:1;fill-rule:evenodd;stroke:none"
         d="m 2498.12,2025.98 c 4.86,29.67 -24.11,120.07 -65.25,153.15 -4.66,-52.59 40.47,-136.1 65.25,-153.15" /><path
         id="path200"
         style="fill:#63a633;fill-opacity:1;fill-rule:evenodd;stroke:none"
         d="m 2498.12,2025.98 c 30.04,1.06 112.99,47.23 137.33,94.08 -52.47,-5.77 -125.49,-66.45 -137.33,-94.08" /><path
         id="path202"
         style="fill:#84cf50;fill-opacity:1;fill-rule:evenodd;stroke:none"
         d="m 2481.53,1945.17 c 4.02,32.64 -31.61,130.16 -78.03,164.5 -2.78,-57.68 50.22,-146.96 78.03,-164.5" /><path
         id="path204"
         style="fill:#95d55f;fill-opacity:1;fill-rule:evenodd;stroke:none"
         d="m 2481.53,1945.16 c 32.8,2.49 121.41,56.6 145.95,108.86 -57.09,-8.62 -134.21,-78.12 -145.95,-108.86" /><path
         id="path206"
         style="fill:#84cf50;fill-opacity:1;fill-rule:evenodd;stroke:none"
         d="m 2471.83,1861.84 c 2.57,35.35 -41,138.39 -92.79,172.86 0.1,-62.22 61.91,-155.46 92.79,-172.86" /><path
         id="path208"
         style="fill:#84cf50;fill-opacity:1;fill-rule:evenodd;stroke:none"
         d="m 2471.83,1861.84 c 35.16,4.43 127.62,67.41 151.24,124.97 -60.98,-12.34 -140.26,-91.27 -151.24,-124.97" /><path
         id="path210"
         style="fill:#63a633;fill-opacity:1;fill-rule:evenodd;stroke:none"
         d="m 2461.9,1781.13 c 2.12,38.32 -46.97,149.07 -103.69,185.43 1.27,-67.36 69.93,-167.18 103.69,-185.43" /><path
         id="path212"
         style="fill:#84cf50;fill-opacity:1;fill-rule:evenodd;stroke:none"
         d="m 2461.9,1781.13 c 37.99,5.45 136.94,75.35 161.43,138.12 -65.8,-14.5 -150.17,-101.43 -161.43,-138.12" /><path
         id="path214"
         style="fill:#84cf50;fill-opacity:1;fill-rule:evenodd;stroke:none"
         d="m 2462,1688.77 c -0.7,41.51 -62.32,157.2 -126.37,192 6.64,-72.59 88.52,-174.93 126.37,-192" /><path
         id="path216"
         style="fill:#63a633;fill-opacity:1;fill-rule:evenodd;stroke:none"
         d="m 2462,1688.77 c 40.57,8.86 141.89,92.01 163.41,161.65 -69.86,-20.77 -154.12,-121.18 -163.41,-161.65" /><path
         id="path218"
         style="fill:#63a633;fill-opacity:1;fill-rule:evenodd;stroke:none"
         d="m 2462.32,1609.57 c -1.37,38.35 -60.36,144.17 -120.16,175.2 7.41,-66.97 84.89,-160.1 120.16,-175.2" /><path
         id="path220"
         style="fill:#95d55f;fill-opacity:1;fill-rule:evenodd;stroke:none"
         d="m 2462.32,1609.57 c 37.34,8.89 129.5,87.53 148.17,152.25 -64.2,-20.42 -140.29,-114.69 -148.17,-152.25" /><path
         id="path222"
         style="fill:#84cf50;fill-opacity:1;fill-rule:evenodd;stroke:none"
         d="m 2466.33,1541.72 c -3.08,35.3 -62.45,130.11 -119.06,155.93 9.98,-61.42 85.81,-143.67 119.06,-155.93" /><path
         id="path224"
         style="fill:#84cf50;fill-opacity:1;fill-rule:evenodd;stroke:none"
         d="m 2466.33,1541.72 c 34.01,9.95 115.3,86.8 129.48,147.38 -58.25,-21.86 -123.99,-112.37 -129.48,-147.38" /><path
         id="path226"
         style="fill:#84cf50;fill-opacity:1;fill-rule:evenodd;stroke:none"
         d="m 2475.23,1482.32 c -5.8,29.22 -64.12,103.02 -113.79,119.4 13.98,-50.4 84.88,-112.19 113.79,-119.4" /><path
         id="path228"
         style="fill:#95d55f;fill-opacity:1;fill-rule:evenodd;stroke:none"
         d="m 2475.23,1482.32 c 28.8,7.64 98.78,70.48 112,121.09 -49.43,-17.12 -106.62,-91.78 -112,-121.09" /><path
         id="path230"
         style="fill:#3a692a;fill-opacity:1;fill-rule:evenodd;stroke:none"
         d="m 2518.03,1539.42 c -30.81,17.5 -92.28,110.98 -92.15,173.2 51.66,-34.66 94.85,-137.87 92.15,-173.2" /><path
         id="path232"
         style="fill:#f6bd7a;fill-opacity:1;fill-rule:evenodd;stroke:none"
         d="m 2173.5,1237.52 h 576.34 v 42.52 H 2173.5 v -42.52" /><path
         id="path234"
         style="fill:#f6bd7a;fill-opacity:1;fill-rule:evenodd;stroke:none"
         d="M 2482.93,1237.52 V 458.441 h -42.52 v 779.079 h 42.52" /><path
         id="path236"
         style="fill:#f6bd7a;fill-opacity:1;fill-rule:evenodd;stroke:none"
         d="m 2173.5,450.691 139.2,786.829 h 42.52 L 2216.03,450.691 h -42.53" /><path
         id="path238"
         style="fill:#f6bd7a;fill-opacity:1;fill-rule:evenodd;stroke:none"
         d="m 2749.84,450.691 -139.2,786.829 h -42.53 l 139.2,-786.829 h 42.53" /><path
         id="path240"
         style="fill:#f6bd7a;fill-opacity:1;fill-rule:evenodd;stroke:none"
         d="m 2239.04,777.242 h 445.25 v 42.528 h -445.25 v -42.528" /><path
         id="path242"
         style="fill:#e18352;fill-opacity:1;fill-rule:evenodd;stroke:none"
         d="m 2260.62,1537.37 h 402.09 c 17.34,0 31.52,-14.18 31.52,-31.51 v -194.31 c 0,-17.33 -14.18,-31.51 -31.52,-31.51 h -402.09 c -17.33,0 -31.51,14.18 -31.51,31.51 v 194.31 c 0,17.33 14.18,31.51 31.51,31.51" /><path
         id="path244"
         style="fill:#ee9767;fill-opacity:1;fill-rule:evenodd;stroke:none"
         d="m 2260.62,1537.37 h 246.07 c 1.59,-6.32 2.41,-12.78 2.41,-19.36 0,-70.51 -94.74,-127.67 -211.63,-127.67 -23.93,0 -46.91,2.39 -68.36,6.81 v 108.71 c 0,17.33 14.18,31.51 31.51,31.51" /><path
         id="path246"
         style="fill:#ce7546;fill-opacity:1;fill-rule:evenodd;stroke:none"
         d="m 2694.23,1408.71 v -97.16 c 0,-17.33 -14.18,-31.51 -31.52,-31.51 h -402.09 c -17.33,0 -31.51,14.18 -31.51,31.51 v 22.6 c 97.64,-54.11 371.65,-58.9 465.12,74.56" /><path
         id="path248"
         style="fill:#3a692a;fill-opacity:1;fill-rule:evenodd;stroke:none"
         d="m 2522.52,1502.17 c 0.04,-3.76 2.67,-7.12 5.82,-7.58 3.12,-0.36 5.64,2.37 5.59,6.14 -0.56,30.46 5.55,70.38 19.18,114.73 13.52,44.02 35.24,92.32 61.72,141.12 27.84,46.9 60.54,94.62 98.45,137.44 38.16,43.11 81.68,81.24 125.32,113.52 2.95,2.05 3.63,5.71 1.43,8.05 -2.22,2.36 -6.39,2.57 -9.33,0.53 -43.99,-32.5 -87.97,-70.96 -126.43,-114.38 -38.21,-43.15 -71.29,-91.25 -99.41,-138.56 -26.92,-49.47 -48.96,-98.5 -62.77,-143.46 -13.9,-45.29 -20.11,-86.18 -19.57,-117.55" /><path
         id="path250"
         style="fill:#3a692a;fill-opacity:1;fill-rule:evenodd;stroke:none"
         d="m 2817.95,2002.07 c 29.06,1.59 114.51,40.6 144.28,78.44 -53.94,-4.27 -131.07,-54.99 -144.28,-78.44" /><path
         id="path252"
         style="fill:#3a692a;fill-opacity:1;fill-rule:evenodd;stroke:none"
         d="m 2784.4,1974.24 c 20.9,18.98 53.58,95.54 42.77,137.44 -36.31,-34.06 -51.54,-113.92 -42.77,-137.44" /><path
         id="path254"
         style="fill:#559532;fill-opacity:1;fill-rule:evenodd;stroke:none"
         d="m 2784.4,1974.24 c 11.59,-6.47 39.66,-10.94 70.65,-11.15 31.12,-0.19 65.84,3.55 89.63,14.1 -21.72,10.1 -55.89,13.27 -87.68,11.8 -31.3,-1.44 -60.14,-7.57 -72.6,-14.75" /><path
         id="path256"
         style="fill:#559532;fill-opacity:1;fill-rule:evenodd;stroke:none"
         d="m 2727.81,1922.52 c 10.14,11.21 21.63,38.8 29.53,69.03 7.85,30.05 11.98,62.8 4.61,85.66 -18.18,-19.69 -30.02,-51.85 -35.42,-82.29 -5.43,-30.59 -4.45,-59.62 1.28,-72.4" /><path
         id="path258"
         style="fill:#3a692a;fill-opacity:1;fill-rule:evenodd;stroke:none"
         d="m 2727.81,1922.52 c 12.87,-6.56 43,-9.62 75.87,-8.1 33.34,1.56 69.75,7.74 94.44,20.63 -24.06,9.98 -60.84,11.49 -94.33,8.08 -33.29,-3.39 -63.43,-11.87 -75.98,-20.61" /><path
         id="path260"
         style="fill:#3a692a;fill-opacity:1;fill-rule:evenodd;stroke:none"
         d="m 2678.3,1863.74 c 9.51,13.02 19.21,43.93 24.72,77.44 5.49,33.36 6.75,69.35 -3.06,93.76 -17.14,-22.78 -26.92,-58.55 -29.73,-92.1 -2.82,-33.84 0.81,-65.4 8.07,-79.1" /><path
         id="path262"
         style="fill:#3a692a;fill-opacity:1;fill-rule:evenodd;stroke:none"
         d="m 2678.3,1863.74 c 14.1,-6.2 46.02,-7.54 80.53,-3.6 34.67,3.95 72.46,13.14 97.13,28.83 -26.28,9.38 -64.9,8.63 -99.89,2.61 -34.52,-5.93 -65.5,-17.32 -77.77,-27.84" /><path
         id="path264"
         style="fill:#3a692a;fill-opacity:1;fill-rule:evenodd;stroke:none"
         d="m 2633.01,1805.21 c 9.59,14.59 17.84,49.07 21.97,86.23 4.08,36.81 3.84,76.45 -7.77,102.87 -17.16,-25.47 -25.59,-65.16 -26.83,-102.23 -1.25,-37.31 4.34,-72.11 12.63,-86.87" /><path
         id="path266"
         style="fill:#3a692a;fill-opacity:1;fill-rule:evenodd;stroke:none"
         d="m 2633.01,1805.21 c 15.31,-6.42 49.3,-6.85 85.46,-1.3 36.61,5.62 75.91,16.91 101.02,35.14 -28.1,9.38 -68.98,7.2 -105.55,-0.58 -36.29,-7.74 -68.36,-21.39 -80.93,-33.26" /><path
         id="path268"
         style="fill:#559532;fill-opacity:1;fill-rule:evenodd;stroke:none"
         d="m 2593.59,1730.76 c 8.31,17.06 13.14,55.77 13.13,96.99 -0.01,40.77 -4.87,84.15 -20.22,112.05 -15.03,-29.56 -19.35,-73.81 -16.44,-114.59 2.94,-41.15 12.98,-78.93 23.53,-94.45" /><path
         id="path270"
         style="fill:#3a692a;fill-opacity:1;fill-rule:evenodd;stroke:none"
         d="m 2593.57,1730.77 c 16.94,-5.61 52.76,-2.74 90.34,6.88 37.77,9.66 77.97,25.93 102.61,48.1 -30.91,7.68 -73.85,1.58 -111.62,-10.52 -37.28,-11.95 -69.52,-30.09 -81.33,-44.46" /><path
         id="path272"
         style="fill:#3a692a;fill-opacity:1;fill-rule:evenodd;stroke:none"
         d="m 2563.01,1664.91 c 6.57,16.41 9.14,53.14 7,92.02 -2.13,38.54 -8.79,79.29 -23.98,105.07 -12.17,-28.31 -14.06,-70.12 -9.32,-108.45 4.8,-38.87 15.81,-74.26 26.3,-88.64" /><path
         id="path274"
         style="fill:#559532;fill-opacity:1;fill-rule:evenodd;stroke:none"
         d="m 2563.01,1664.91 c 15.63,-4.75 48.07,-1.09 81.65,9.13 33.82,10.29 69.09,26.96 89.92,48.79 -28.18,6.28 -66.61,-0.96 -99.99,-13.53 -33.2,-12.5 -61.67,-30.41 -71.58,-44.39" /><path
         id="path276"
         style="fill:#559532;fill-opacity:1;fill-rule:evenodd;stroke:none"
         d="m 2541.88,1605.51 c 4.94,15.77 4.38,50.48 -0.41,87.05 -4.71,36.02 -13.93,74.07 -29.56,97.31 -8.96,-27.26 -7.46,-66.65 -0.3,-102.59 7.22,-36.19 19.76,-68.92 30.27,-81.77" /><path
         id="path278"
         style="fill:#3a692a;fill-opacity:1;fill-rule:evenodd;stroke:none"
         d="m 2541.88,1605.51 c 14.59,-3.63 43.86,1.76 73.62,13.44 29.77,11.7 60.68,29.57 77.85,51.49 -26.13,4.19 -60.19,-4.96 -89.68,-18.82 -29.25,-13.74 -53.69,-32.41 -61.79,-46.11" /><path
         id="path280"
         style="fill:#3a692a;fill-opacity:1;fill-rule:evenodd;stroke:none"
         d="m 2529.24,1549.88 c 2.45,14.05 -1.56,43.9 -9.53,74.48 -7.93,30.42 -19.87,61.87 -35.47,80.09 -4.24,-24.27 1.58,-57.94 11.35,-87.79 9.94,-30.39 23.68,-56.87 33.65,-66.78" /><path
         id="path282"
         style="fill:#559532;fill-opacity:1;fill-rule:evenodd;stroke:none"
         d="m 2529.24,1549.88 c 12.28,-3.41 36.78,0.65 61.38,9.98 24.84,9.43 50.07,24.23 64.02,42.74 -21.63,4.03 -49.85,-3.34 -74.1,-14.61 -24.28,-11.28 -44.57,-26.62 -51.3,-38.11" /><path
         id="path284"
         style="fill:#84cf50;fill-opacity:1;fill-rule:evenodd;stroke:none"
         d="m 2557.84,1530.72 c -2.68,-2.66 -2.7,-7.01 -0.03,-9.7 2.67,-2.69 7,-2.7 9.7,-0.03 43.34,43.11 139.61,93.16 253.72,136.16 112.36,42.33 241.8,77.67 355.02,92.72 3.75,0.52 6.39,3.99 5.88,7.75 -0.52,3.76 -3.99,6.38 -7.75,5.87 -114.15,-15.18 -244.66,-50.82 -357.97,-93.51 -115.79,-43.62 -213.85,-94.79 -258.57,-139.26" /><path
         id="path286"
         style="fill:#95d55f;fill-opacity:1;fill-rule:evenodd;stroke:none"
         d="m 3155.5,1756.28 c 25.92,-15.26 120.67,-20.92 166.38,5.5 -47.35,23.34 -141.53,11.43 -166.38,-5.5" /><path
         id="path288"
         style="fill:#84cf50;fill-opacity:1;fill-rule:evenodd;stroke:none"
         d="m 3110.06,1747.76 c 29.26,6.96 101.5,68.55 116.15,119.26 -50.31,-15.99 -109.97,-89.82 -116.15,-119.26" /><path
         id="path290"
         style="fill:#63a633;fill-opacity:1;fill-rule:evenodd;stroke:none"
         d="m 3110.06,1747.77 c 12.57,-27.32 87.15,-86.05 139.75,-90.45 -25.55,46.19 -109.68,90.17 -139.75,90.45" /><path
         id="path292"
         style="fill:#84cf50;fill-opacity:1;fill-rule:evenodd;stroke:none"
         d="m 3029.11,1731.9 c 31.66,8.89 107.91,79.37 121.69,135.44 -54.29,-19.69 -116.23,-103.01 -121.69,-135.44" /><path
         id="path294"
         style="fill:#95d55f;fill-opacity:1;fill-rule:evenodd;stroke:none"
         d="m 3029.11,1731.9 c 14.93,-29.29 99.02,-90.19 156.71,-92.68 -29.97,49.35 -123.84,93.71 -156.71,92.68" /><path
         id="path296"
         style="fill:#84cf50;fill-opacity:1;fill-rule:evenodd;stroke:none"
         d="m 2948.49,1708.73 c 33.6,11.26 111.87,91.19 123.7,152.26 -57.37,-24.08 -119.56,-117.07 -123.7,-152.26" /><path
         id="path298"
         style="fill:#84cf50;fill-opacity:1;fill-rule:evenodd;stroke:none"
         d="m 2948.49,1708.73 c 17.63,-30.73 111.39,-91.77 173.61,-91.36 -34.89,51.51 -138.29,94.22 -173.61,91.36" /><path
         id="path300"
         style="fill:#63a633;fill-opacity:1;fill-rule:evenodd;stroke:none"
         d="m 2870.19,1686.78 c 36.17,12.81 119.43,100.81 131.1,167.16 -61.66,-27.14 -127.28,-128.98 -131.1,-167.16" /><path
         id="path302"
         style="fill:#84cf50;fill-opacity:1;fill-rule:evenodd;stroke:none"
         d="m 2870.19,1686.78 c 19.67,-32.96 122.32,-97.3 189.67,-95.71 -38.74,55.13 -151.48,99.46 -189.67,95.71" /><path
         id="path304"
         style="fill:#84cf50;fill-opacity:1;fill-rule:evenodd;stroke:none"
         d="m 2785.01,1651.06 c 38.03,16.66 121.01,118.12 128.42,190.64 -64.42,-34.11 -127.28,-149.13 -128.42,-190.64" /><path
         id="path306"
         style="fill:#63a633;fill-opacity:1;fill-rule:evenodd;stroke:none"
         d="m 2785.01,1651.06 c 23.8,-34.01 139.6,-95.43 212.15,-88.44 -46.11,56.46 -171.23,95.47 -212.15,88.44" /><path
         id="path308"
         style="fill:#63a633;fill-opacity:1;fill-rule:evenodd;stroke:none"
         d="m 2712.05,1620.22 c 34.85,16.07 109.76,111.29 115.32,178.44 -58.93,-32.66 -114.99,-140.06 -115.32,-178.44" /><path
         id="path310"
         style="fill:#95d55f;fill-opacity:1;fill-rule:evenodd;stroke:none"
         d="m 2712.05,1620.22 c 22.6,-31.01 130.69,-85.73 197.62,-77.99 -43.61,51.36 -159.92,85.22 -197.62,77.99" /><path
         id="path312"
         style="fill:#84cf50;fill-opacity:1;fill-rule:evenodd;stroke:none"
         d="m 2650.99,1590.37 c 31.38,16.45 95.98,107.79 97.96,169.98 -52.81,-32.89 -99.47,-134.57 -97.96,-169.98" /><path
         id="path314"
         style="fill:#84cf50;fill-opacity:1;fill-rule:evenodd;stroke:none"
         d="m 2650.99,1590.37 c 22.29,-27.54 124.56,-72.91 185.91,-62.64 -42.62,45.33 -151.49,71.08 -185.91,62.64" /><path
         id="path316"
         style="fill:#84cf50;fill-opacity:1;fill-rule:evenodd;stroke:none"
         d="m 2599.63,1559.26 c 24.72,16.62 70.32,98.87 66.28,151.02 -41.12,-32.32 -70.78,-121.58 -66.28,-151.02" /><path
         id="path318"
         style="fill:#95d55f;fill-opacity:1;fill-rule:evenodd;stroke:none"
         d="m 2599.63,1559.26 c 18.14,-23.64 103.1,-63.97 154.9,-56.65 -34.85,39 -125.8,62.98 -154.9,56.65" /><path
         id="path320"
         style="fill:#3a692a;fill-opacity:1;fill-rule:evenodd;stroke:none"
         d="m 2421.17,1537.17 c 3.27,-1.9 4.38,-6.1 2.48,-9.38 -1.9,-3.27 -6.1,-4.38 -9.37,-2.48 -52.82,30.78 -158.61,54.91 -279.89,67.72 -119.4,12.6 -253.56,14.13 -366.92,0.12 -3.76,-0.45 -7.19,2.24 -7.64,6.01 -0.45,3.77 2.24,7.19 6,7.64 114.29,14.12 249.58,12.57 370,-0.13 123.05,-13 230.84,-37.75 285.34,-69.5" /><path
         id="path322"
         style="fill:#559532;fill-opacity:1;fill-rule:evenodd;stroke:none"
         d="m 1785.93,1604.59 c -21.22,-21.31 -111.49,-50.7 -162.39,-36.68 39.94,34.54 134.07,46.8 162.39,36.68" /><path
         id="path324"
         style="fill:#3a692a;fill-opacity:1;fill-rule:evenodd;stroke:none"
         d="m 1832.05,1607.82 c -30.07,-0.66 -115.51,40.69 -142.49,86.08 52.72,-2.77 129.08,-59.16 142.49,-86.08" /><path
         id="path326"
         style="fill:#3a692a;fill-opacity:1;fill-rule:evenodd;stroke:none"
         d="m 1832.05,1607.82 c -5.27,-29.61 -62.61,-105.26 -112.41,-122.79 13.07,51.14 83.38,114.93 112.41,122.79" /><path
         id="path328"
         style="fill:#3a692a;fill-opacity:1;fill-rule:evenodd;stroke:none"
         d="m 1914.38,1612.9 c -32.89,0.6 -124.44,49.56 -151.93,100.33 57.49,-5.34 138.46,-70.32 151.93,-100.33" /><path
         id="path330"
         style="fill:#559532;fill-opacity:1;fill-rule:evenodd;stroke:none"
         d="m 1914.38,1612.9 c -7.06,-32.12 -73.05,-112.28 -128.24,-129.24 16.54,55.32 96.17,121.93 128.24,129.24" /><path
         id="path332"
         style="fill:#559532;fill-opacity:1;fill-rule:evenodd;stroke:none"
         d="m 1998.24,1610.83 c -35.35,2.41 -131.26,59.99 -158.12,116.11 61.58,-8.83 145.24,-83.1 158.12,-116.11" /><path
         id="path334"
         style="fill:#3a692a;fill-opacity:1;fill-rule:evenodd;stroke:none"
         d="m 1998.24,1610.83 c -9.31,-34.2 -84.63,-116.92 -144.92,-132.23 20.76,58.65 110.02,126.08 144.92,132.23" /><path
         id="path336"
         style="fill:#3a692a;fill-opacity:1;fill-rule:evenodd;stroke:none"
         d="m 2079.55,1609.34 c -38.23,3.28 -141.01,67.41 -169.06,128.67 66.52,-10.71 155.72,-92.69 169.06,-128.67" /><path
         id="path338"
         style="fill:#3a692a;fill-opacity:1;fill-rule:evenodd;stroke:none"
         d="m 2079.55,1609.34 c -10.72,-36.85 -93.81,-125.02 -159.39,-140.47 23.58,63.11 121.49,134.46 159.39,140.47" /><path
         id="path340"
         style="fill:#3a692a;fill-opacity:1;fill-rule:evenodd;stroke:none"
         d="m 2170.98,1596.29 c -41,6.51 -146.9,83.75 -172.38,152.05 70.95,-16.76 160.8,-112.19 172.38,-152.05" /><path
         id="path342"
         style="fill:#559532;fill-opacity:1;fill-rule:evenodd;stroke:none"
         d="m 2170.99,1596.29 c -14.46,-38.93 -111,-127.58 -182.97,-139.13 30.37,66.27 141.59,135.6 182.97,139.13" /><path
         id="path344"
         style="fill:#559532;fill-opacity:1;fill-rule:evenodd;stroke:none"
         d="m 2249.36,1584.86 c -37.78,6.74 -134.28,79.98 -156.62,143.55 65.26,-16.73 146.62,-106.5 156.62,-143.55" /><path
         id="path346"
         style="fill:#3a692a;fill-opacity:1;fill-rule:evenodd;stroke:none"
         d="m 2249.36,1584.86 c -14.04,-35.72 -104.82,-115.95 -171.53,-125.35 29.23,60.7 133.24,122.82 171.53,125.35" /><path
         id="path348"
         style="fill:#559532;fill-opacity:1;fill-rule:evenodd;stroke:none"
         d="m 2315.98,1571.39 c -34.52,7.99 -120.08,80.07 -137.69,139.74 59.41,-18.49 130.21,-105.11 137.69,-139.74" /><path
         id="path350"
         style="fill:#3a692a;fill-opacity:1;fill-rule:evenodd;stroke:none"
         d="m 2315.98,1571.39 c -14.63,-32.28 -102.12,-102 -164.08,-107.53 29.81,54.6 128.65,107 164.08,107.53" /><path
         id="path352"
         style="fill:#3a692a;fill-opacity:1;fill-rule:evenodd;stroke:none"
         d="m 2373.54,1554.24 c -28.12,9.84 -93.01,77.93 -102.26,129.41 47.95,-20.91 99.18,-99.78 102.26,-129.41" /><path
         id="path354"
         style="fill:#559532;fill-opacity:1;fill-rule:evenodd;stroke:none"
         d="m 2373.54,1554.24 c -11.6,-27.44 -83.63,-87.92 -135.59,-93.91 23.88,46.53 105.82,92.7 135.59,93.91" /><path
         id="path356"
         style="fill:#63a633;fill-opacity:1;fill-rule:evenodd;stroke:none"
         d="m 2445.54,1530.76 c 0.56,-3.75 -2.03,-7.24 -5.77,-7.79 -3.75,-0.56 -7.24,2.03 -7.79,5.78 -8.92,60.48 -56.07,158.2 -121.75,260.95 -64.66,101.17 -147.19,206.96 -228.86,286.8 -2.7,2.66 -2.74,7.01 -0.08,9.72 2.66,2.69 7.01,2.73 9.72,0.08 82.35,-80.5 165.57,-187.18 230.78,-289.21 66.63,-104.26 114.56,-203.94 123.75,-266.33" /><path
         id="path358"
         style="fill:#63a633;fill-opacity:1;fill-rule:evenodd;stroke:none"
         d="m 2101.82,2069.22 c -29.89,3.28 -109.19,55.47 -129.99,103.99 51.91,-9.65 120.22,-75.56 129.99,-103.99" /><path
         id="path360"
         style="fill:#76bd49;fill-opacity:1;fill-rule:evenodd;stroke:none"
         d="m 2133.12,2035.19 c -19.27,23.08 -40.28,115.66 -21.65,165.05 30.73,-42.92 34.32,-137.78 21.65,-165.05" /><path
         id="path362"
         style="fill:#63a633;fill-opacity:1;fill-rule:evenodd;stroke:none"
         d="m 2133.13,2035.19 c -26.43,-14.36 -121.33,-16.76 -166.1,11.21 48.13,21.69 141.84,6.57 166.1,-11.21" /><path
         id="path364"
         style="fill:#63a633;fill-opacity:1;fill-rule:evenodd;stroke:none"
         d="m 2188.47,1974.02 c -20.04,26.08 -38.93,128.18 -16.4,181.34 31.7,-48.26 31.45,-152.09 16.4,-181.34" /><path
         id="path366"
         style="fill:#3a692a;fill-opacity:1;fill-rule:evenodd;stroke:none"
         d="m 2188.47,1974.02 c -29.5,-14.53 -133.31,-12.98 -181.01,19.56 53.55,21.59 155.29,0.94 181.01,-19.56" /><path
         id="path368"
         style="fill:#63a633;fill-opacity:1;fill-rule:evenodd;stroke:none"
         d="m 2239.18,1907.2 c -20.17,29.13 -35.03,140.02 -7.93,196.02 31.52,-53.63 25.68,-165.35 7.93,-196.02" /><path
         id="path370"
         style="fill:#63a633;fill-opacity:1;fill-rule:evenodd;stroke:none"
         d="m 2239.18,1907.2 c -32.53,-14.06 -144.17,-6.83 -193.76,30.74 58.79,20.37 167.18,-7.31 193.76,-30.74" /><path
         id="path372"
         style="fill:#76bd49;fill-opacity:1;fill-rule:evenodd;stroke:none"
         d="m 2288.76,1842.73 c -21.3,31.93 -35.33,152.26 -4.95,212.41 33.14,-58.67 24.74,-179.53 4.95,-212.41" /><path
         id="path374"
         style="fill:#63a633;fill-opacity:1;fill-rule:evenodd;stroke:none"
         d="m 2288.76,1842.73 c -35.48,-14.61 -156.23,-4.7 -209.23,36.9 64.03,20.96 180.89,-11.03 209.23,-36.9" /><path
         id="path376"
         style="fill:#63a633;fill-opacity:1;fill-rule:evenodd;stroke:none"
         d="m 2335.62,1763.14 c -20.5,36.12 -26.23,167.06 11.24,229.58 31.18,-65.89 12.68,-195.64 -11.24,-229.58" /><path
         id="path378"
         style="fill:#63a633;fill-opacity:1;fill-rule:evenodd;stroke:none"
         d="m 2335.62,1763.14 c -39.44,-12.99 -168.95,7.12 -222.9,56.16 70.74,17.62 194.33,-26.03 222.9,-56.16" /><path
         id="path380"
         style="fill:#3a692a;fill-opacity:1;fill-rule:evenodd;stroke:none"
         d="m 2375.6,1694.77 c -18.31,33.73 -21.3,154.85 14.43,211.97 27.66,-61.44 8.28,-181.03 -14.43,-211.97" /><path
         id="path382"
         style="fill:#63a633;fill-opacity:1;fill-rule:evenodd;stroke:none"
         d="m 2375.6,1694.77 c -36.67,-11.31 -156.02,9.55 -204.99,55.81 65.67,15.04 179.12,-27.47 204.99,-55.81" /><path
         id="path384"
         style="fill:#63a633;fill-opacity:1;fill-rule:evenodd;stroke:none"
         d="m 2406.64,1634.31 c -15.3,31.96 -12.36,143.79 23.28,194.79 22.61,-57.96 -0.88,-167.33 -23.28,-194.79" /><path
         id="path386"
         style="fill:#76bd49;fill-opacity:1;fill-rule:evenodd;stroke:none"
         d="m 2406.64,1634.31 c -34.35,-8.72 -143.42,16.14 -186.42,61.11 61.27,10.78 163.9,-33.76 186.42,-61.11" /><path
         id="path388"
         style="fill:#63a633;fill-opacity:1;fill-rule:evenodd;stroke:none"
         d="m 2429.16,1578.63 c -9.86,28.12 2.85,121.31 37.3,160.66 13.59,-50.51 -16.07,-139.76 -37.3,-160.66" /><path
         id="path390"
         style="fill:#63a633;fill-opacity:1;fill-rule:evenodd;stroke:none"
         d="m 2429.16,1578.62 c -28.69,-8.05 -120.89,10.5 -157.99,47.37 51.26,10.37 138.46,-24.86 157.99,-47.37" /><path
         id="path392"
         style="fill:#84cf50;fill-opacity:1;fill-rule:evenodd;stroke:none"
         d="m 2475.73,1558.83 c 3.92,-0.54 7.11,-2.97 7.3,-5.51 0.1,-2.53 -2.97,-4.18 -6.78,-3.67 -31.26,4.03 -72.45,3.98 -117.97,-3.38 -44.43,-7.18 -92.32,-22.98 -139.68,-43.8 -44.24,-23.48 -88.34,-52.44 -124.94,-89.12 -36.99,-37.07 -66.39,-81.97 -90.04,-127.47 -1.46,-3.11 -4.4,-4.17 -6.51,-2.18 -2.14,1.93 -2.71,6.05 -1.22,9.23 23.82,45.95 53.34,91.33 90.6,128.7 36.87,36.98 81.32,66.25 126,89.92 48.07,21.1 96.82,37.11 142.23,44.27 46.57,7.34 88.82,7.16 121.01,3.01" /><path
         id="path394"
         style="fill:#95d55f;fill-opacity:1;fill-rule:evenodd;stroke:none"
         d="m 2006.5,1306.64 c 1.05,-28.73 -22.62,-118.48 -49.1,-153.97 -2.79,55.68 30.79,138.88 49.1,153.97" /><path
         id="path396"
         style="fill:#63a633;fill-opacity:1;fill-rule:evenodd;stroke:none"
         d="m 2027.5,1341.67 c -7.33,-10.81 -26.76,-25.25 -48.07,-37.13 -21.25,-11.84 -44.23,-21.43 -61.66,-18.47 11.85,20.36 33.48,37.24 55.35,46.67 22.16,9.56 44.06,12.49 54.38,8.93" /><path
         id="path398"
         style="fill:#84cf50;fill-opacity:1;fill-rule:evenodd;stroke:none"
         d="m 2027.5,1341.67 c 6.24,-10.78 11.99,-37.88 14.49,-68.24 2.51,-30.48 2.49,-65.41 -4.05,-90.11 -10.32,20.7 -16.05,54.36 -17.47,86.08 -1.37,30.81 1.8,59.69 7.03,72.27" /><path
         id="path400"
         style="fill:#63a633;fill-opacity:1;fill-rule:evenodd;stroke:none"
         d="m 2069.08,1398.82 c -9.27,-10.23 -32.77,-22.29 -58.02,-32.06 -24.93,-9.66 -52,-16.61 -71.32,-11.61 14.89,19.76 40.85,34.15 66.56,41.16 25.9,7.06 51.33,7.35 62.78,2.51" /><path
         id="path402"
         style="fill:#95d55f;fill-opacity:1;fill-rule:evenodd;stroke:none"
         d="m 2069.08,1398.82 c 6.33,-11.99 10.33,-40.6 10.82,-72.16 0.51,-32.31 -2.15,-68.06 -11.14,-93.25 -10.17,22.77 -14.26,58.76 -13.41,91.45 0.85,32.45 6.74,61.62 13.73,73.96" /><path
         id="path404"
         style="fill:#84cf50;fill-opacity:1;fill-rule:evenodd;stroke:none"
         d="m 2119.75,1446.61 c -11.62,-8.92 -38.86,-18.52 -68.18,-25 -28.88,-6.38 -59.64,-10.11 -81.06,-2.15 18.36,18.07 48.91,29.36 78.24,33.1 29.92,3.83 58.48,0.61 71,-5.95" /><path
         id="path406"
         style="fill:#84cf50;fill-opacity:1;fill-rule:evenodd;stroke:none"
         d="m 2119.75,1446.61 c 5.93,-13 7.91,-42.55 5.66,-75.12 -2.27,-32.83 -8.36,-69.2 -20.48,-93.81 -9.65,24.84 -11.33,61.95 -7.51,95.52 3.72,32.68 13.06,61.97 22.33,73.41" /><path
         id="path408"
         style="fill:#95d55f;fill-opacity:1;fill-rule:evenodd;stroke:none"
         d="m 2172.72,1487.77 c -13.39,-8.53 -45.14,-15.53 -78.58,-19.88 -32.85,-4.26 -68,-5.28 -91.56,4.49 21.67,17.22 56.56,26.43 90.11,27.6 34.18,1.19 66.3,-4.39 80.03,-12.21" /><path
         id="path410"
         style="fill:#84cf50;fill-opacity:1;fill-rule:evenodd;stroke:none"
         d="m 2172.72,1487.77 c 6.02,-13.96 6.45,-44.94 2.06,-77.92 -4.51,-33.87 -13.18,-70.85 -28.44,-94.95 -9.42,26.28 -9.05,64.68 -2.89,98.86 6.09,33.76 18.42,62.7 29.27,74.01" /><path
         id="path412"
         style="fill:#84cf50;fill-opacity:1;fill-rule:evenodd;stroke:none"
         d="m 2243.59,1520.15 c -16.38,-6.59 -53.2,-8.94 -91.92,-8.1 -37.59,0.81 -77.25,4.95 -102.79,18.85 26.35,14.26 67.13,17.84 105.32,13.92 38.9,-3.99 74.76,-14.68 89.39,-24.67" /><path
         id="path414"
         style="fill:#63a633;fill-opacity:1;fill-rule:evenodd;stroke:none"
         d="m 2243.59,1520.15 c 5.08,-15.13 1.58,-46.53 -7.56,-79.83 -9.27,-33.78 -23.67,-70.34 -43.24,-93.26 -7.62,28.5 -3.26,68.13 7.97,102.31 10.92,33.27 28.96,61.03 42.83,70.78" /><path
         id="path416"
         style="fill:#84cf50;fill-opacity:1;fill-rule:evenodd;stroke:none"
         d="m 2308.7,1542.2 c -16.45,-4.34 -52.18,-4.04 -89.71,-0.12 -36.78,3.85 -75.11,10.89 -99.32,25.32 26.64,10.09 66.62,9.82 103.42,3.45 37.57,-6.51 71.91,-18.69 85.61,-28.65" /><path
         id="path418"
         style="fill:#95d55f;fill-opacity:1;fill-rule:evenodd;stroke:none"
         d="m 2308.7,1542.2 c 4.04,-13.69 -1.15,-41 -11.74,-69.58 -10.8,-29.13 -26.64,-60.02 -47.25,-78.1 -5.76,25.41 0.85,59.78 13.65,88.55 12.65,28.43 31.11,51.78 45.34,59.13" /><path
         id="path420"
         style="fill:#84cf50;fill-opacity:1;fill-rule:evenodd;stroke:none"
         d="m 2368.96,1554.76 c -16.08,-2.62 -50.74,0.99 -86.54,7.84 -35.11,6.72 -71.77,17.11 -94.01,32.22 26.9,5.82 65.39,1.75 100.49,-7.32 35.76,-9.25 67.75,-22.85 80.06,-32.74" /><path
         id="path422"
         style="fill:#84cf50;fill-opacity:1;fill-rule:evenodd;stroke:none"
         d="m 2368.96,1554.76 c 2.77,-12.46 -4.54,-36.2 -17.31,-60.55 -12.87,-24.54 -30.93,-50.38 -52.13,-64.52 -3.58,23.22 5.8,52.59 20.53,76.95 14.5,23.99 34.74,42.66 48.91,48.12" /><path
         id="path424"
         style="fill:#84cf50;fill-opacity:1;fill-rule:evenodd;stroke:none"
         d="m 2426.1,1559.31 c -14.44,-0.53 -44.34,5.96 -74.8,15.59 -30.02,9.49 -60.88,22.49 -78.17,37.14 24.58,1.12 58.01,-6.99 87.69,-18.29 30.04,-11.44 55.98,-25.34 65.28,-34.44" /><path
         id="path426"
         style="fill:#95d55f;fill-opacity:1;fill-rule:evenodd;stroke:none"
         d="m 2426.1,1559.31 c 2.55,-10.33 -3.56,-29.65 -14.45,-49.04 -11.08,-19.7 -26.83,-39.93 -45.61,-50.48 -3.03,18.69 5.32,42.17 18.09,61.28 12.73,19.07 29.83,33.94 41.97,38.24" /><path
         id="path428"
         style="fill:#3a692a;fill-opacity:1;fill-rule:evenodd;stroke:none"
         d="m 2480.55,1546.65 c -4.18,0.64 -8.53,-0.96 -9.94,-3.63 -1.31,-2.7 1.04,-5.4 5.11,-6.04 33.55,-5.26 75.51,-17.71 119.39,-38.74 42.76,-20.5 85.65,-50.9 125.3,-86.72 34.86,-37.98 66.46,-82.47 85.78,-133 19.75,-51.61 27.62,-108.88 30.85,-164.43 0.14,-3.69 2.75,-5.64 5.85,-4.13 3.12,1.44 5.54,5.61 5.4,9.39 -3.27,56.02 -11.1,113.81 -30.98,165.83 -19.45,50.93 -51.25,95.87 -86.47,134.17 -40.24,36.34 -83.91,67.23 -127.71,87.99 -44.95,21.32 -88.03,33.9 -122.58,39.31" /><path
         id="path430"
         style="fill:#559532;fill-opacity:1;fill-rule:evenodd;stroke:none"
         d="m 2843.8,1137.16 c -14.39,-30.34 -28.78,-131.17 -14.07,-174.23 25.53,56.45 26,152.78 14.07,174.23" /><path
         id="path432"
         style="fill:#3a692a;fill-opacity:1;fill-rule:evenodd;stroke:none"
         d="m 2838.56,1180.83 c 2.31,-13.85 15.53,-35.08 32.13,-53.9 16.59,-18.8 36.99,-34.98 56.88,-36.58 -3.96,24.42 -19.46,47.99 -37.78,64.5 -18.4,16.59 -39.22,26.55 -51.23,25.98" /><path
         id="path434"
         style="fill:#559532;fill-opacity:1;fill-rule:evenodd;stroke:none"
         d="m 2838.56,1180.83 c -11.44,-9.68 -29.83,-36.98 -46.4,-68.45 -16.88,-32.05 -32.42,-68.75 -36.89,-96.86 20.09,18.95 41.02,53.05 56.79,85.96 15.68,32.71 25.82,64.23 26.5,79.35" /><path
         id="path436"
         style="fill:#3a692a;fill-opacity:1;fill-rule:evenodd;stroke:none"
         d="m 2823.84,1255.15 c 4.58,-13.79 22.21,-34.24 43.27,-52.4 20.79,-17.93 45.17,-33.51 67.59,-33.67 -6.23,25.46 -26.3,48.5 -48.82,63.92 -22.79,15.61 -48.18,23.82 -62.04,22.15" /><path
         id="path438"
         style="fill:#3a692a;fill-opacity:1;fill-rule:evenodd;stroke:none"
         d="m 2823.84,1255.15 c -12.05,-10.9 -29.76,-40.34 -45.33,-74.31 -15.78,-34.38 -29.95,-73.65 -32.18,-103.08 20.87,21.2 41.66,58.15 56.33,93.72 14.36,34.85 22.41,68.28 21.18,83.67" /><path
         id="path440"
         style="fill:#3a692a;fill-opacity:1;fill-rule:evenodd;stroke:none"
         d="m 2795.64,1322.31 c 7.45,-13.19 30.31,-31.99 56.63,-48.11 25.94,-15.91 55.29,-29.25 80.75,-27.28 -10.2,24.93 -35.42,46.77 -62.99,59.81 -28.43,13.44 -58.62,18.78 -74.39,15.58" /><path
         id="path442"
         style="fill:#559532;fill-opacity:1;fill-rule:evenodd;stroke:none"
         d="m 2795.64,1322.31 c -12.1,-12.1 -28.1,-43.36 -41.27,-78.9 -13.43,-36.21 -24.46,-76.97 -24.18,-107.34 21.37,23.61 40.83,63.17 52.9,100.32 11.83,36.4 16.5,70.8 12.55,85.92" /><path
         id="path444"
         style="fill:#559532;fill-opacity:1;fill-rule:evenodd;stroke:none"
         d="m 2760.91,1382.36 c 9.84,-13.05 38.86,-30.03 70.66,-45.1 30.99,-14.66 65.7,-26.86 94.1,-23.64 -13.42,25.39 -44.24,46.12 -77.59,57.56 -34.18,11.72 -69.38,15.49 -87.17,11.18" /><path
         id="path446"
         style="fill:#3a692a;fill-opacity:1;fill-rule:evenodd;stroke:none"
         d="m 2760.91,1382.36 c -12.5,-13.03 -27.31,-46.01 -38.25,-82.56 -11.3,-37.71 -20.18,-80.09 -16.47,-110.87 22.29,25.53 40.09,66.72 50.05,105.47 9.75,37.92 10.65,72.72 4.67,87.96" /><path
         id="path448"
         style="fill:#3a692a;fill-opacity:1;fill-rule:evenodd;stroke:none"
         d="m 2702.7,1437.64 c 13.96,-11.76 50.9,-24.93 90.98,-35.7 38.63,-10.39 80.88,-18.05 113.28,-10.99 -20.05,23.32 -59.79,39.74 -100.76,46.75 -42.09,7.19 -83.75,6.32 -103.5,-0.06" /><path
         id="path450"
         style="fill:#3a692a;fill-opacity:1;fill-rule:evenodd;stroke:none"
         d="m 2702.7,1437.64 c -12,-14.49 -22.68,-48.99 -28.39,-86.87 -5.86,-38.75 -8.36,-82.12 0.68,-112.68 21.07,28.18 35.24,71.81 39.57,111.77 4.19,38.58 -1.93,73.38 -11.86,87.78" /><path
         id="path452"
         style="fill:#3a692a;fill-opacity:1;fill-rule:evenodd;stroke:none"
         d="m 2644.79,1479.62 c 15.01,-9.41 52.48,-19 93.37,-25.85 39.46,-6.61 82.37,-10.47 113.73,-2.37 -22.61,18.71 -64.09,30 -105.27,33.82 -41.96,3.9 -83.15,0.96 -101.83,-5.6" /><path
         id="path454"
         style="fill:#559532;fill-opacity:1;fill-rule:evenodd;stroke:none"
         d="m 2644.79,1479.62 c -10.36,-13.3 -17.23,-43.62 -19.07,-76.97 -1.86,-33.85 0.73,-71.15 13.4,-96.63 17.65,25.38 26.71,63.69 26.46,98.17 -0.24,33.53 -9.48,63.46 -20.79,75.43" /><path
         id="path456"
         style="fill:#3a692a;fill-opacity:1;fill-rule:evenodd;stroke:none"
         d="m 2588.01,1510.43 c 15.35,-7.54 52.95,-13.87 93.15,-16.88 39.76,-2.98 82.26,-2.54 112.19,7.05 -25.15,14.05 -67.24,20.8 -107.54,21.28 -41.58,0.5 -80.59,-4.57 -97.8,-11.45" /><path
         id="path458"
         style="fill:#559532;fill-opacity:1;fill-rule:evenodd;stroke:none"
         d="m 2588.01,1510.43 c -8.54,-12.42 -11.73,-39.85 -9.33,-69.11 2.43,-29.73 9.43,-62.25 25.29,-83.2 14.17,23.54 17.29,57.17 12.93,87.1 -4.31,29.62 -16.83,55.21 -28.89,65.21" /><path
         id="path460"
         style="fill:#559532;fill-opacity:1;fill-rule:evenodd;stroke:none"
         d="m 2531.1,1532 c 14.66,-4.79 48.21,-6.72 84.28,-5.39 35.16,1.31 73.05,6.01 97.77,16.71 -25.21,8.15 -63.32,9.22 -99.27,5.93 -36.02,-3.31 -69.02,-10.3 -82.78,-17.25" /><path
         id="path462"
         style="fill:#3a692a;fill-opacity:1;fill-rule:evenodd;stroke:none"
         d="m 2531.1,1532 c -7.2,-10.12 -10.06,-32.66 -7.59,-56.41 2.51,-24.11 10.01,-49.92 24.7,-66.54 11.6,18.92 13.36,45.98 8.79,70.06 -4.52,23.82 -15.3,44.79 -25.9,52.89" /><path
         id="path464"
         style="fill:#76bd49;fill-opacity:1;fill-rule:evenodd;stroke:none"
         d="m 2518.03,1539.42 c -24.28,-25.82 -129.6,-63.51 -190.04,-48.72 45.86,42.04 156.34,59.68 190.04,48.72" /><path
         id="path466"
         style="fill:#559532;fill-opacity:1;fill-rule:evenodd;stroke:none"
         d="m 2518.03,1539.42 c -35.42,1.17 -133.29,55.37 -162.1,110.51 61.86,-6.67 148.06,-77.97 162.1,-110.51" /><path
         id="path468"
         style="fill:#c2c4c2;fill-opacity:1;fill-rule:evenodd;stroke:none"
         d="m 2436.17,2538.43 c 233.33,0 423.64,24.21 423.64,53.88 0,29.69 -190.31,53.89 -423.64,53.89 -233.34,0 -423.65,-24.2 -423.65,-53.89 0,-29.67 190.31,-53.88 423.65,-53.88" /><path
         id="path470"
         style="fill:#47ae64;fill-opacity:1;fill-rule:evenodd;stroke:none"
         d="m 2525.85,3796.07 c -147.04,261.11 153.17,540.28 344.87,551.63 40.92,-186.5 -46.16,-506.43 -344.87,-551.63" /><path
         id="path472"
         style="fill:#57c374;fill-opacity:1;fill-rule:evenodd;stroke:none"
         d="m 2525.39,3804.26 c 13.05,71.94 -12.62,148.12 1.47,198.33 7.96,28.43 34.06,-33.25 47.59,-7.16 50.3,96.92 9.65,151.37 22.9,171.58 16.06,24.52 56.91,-51.85 73.24,-27.7 50.69,74.98 29.51,129.38 44.89,138.63 13.38,8.06 1.51,-61.17 14.29,-52.45 22.69,15.49 54.97,73.05 107.28,83.43 19.93,3.95 -47.63,-73.55 -64.9,-112.47 -6.51,-14.66 80.71,20.1 73.19,3.67 -14.01,-30.62 -114.33,-67.62 -153.17,-139.22 -8.29,-15.27 134.59,36.4 122.91,17.43 -18.33,-29.75 -160.3,-54.61 -213.12,-160.48 -10.72,-21.48 108.56,30.11 97.59,0.84 -19.34,-51.64 -121.67,-37.59 -174.16,-114.43" /><path
         id="path474"
         style="fill:#3b9555;fill-opacity:1;fill-rule:evenodd;stroke:none"
         d="m 2536.72,3794.82 c -2.73,-10.99 -19.43,-6.78 -17.8,8.56 14.79,138.85 195.42,386.86 294.09,487.77 4.4,4.51 10.33,0.36 6.26,-4.45 -103.97,-123.17 -247.81,-351.51 -282.55,-491.88" /><path
         id="path476"
         style="fill:#47ae64;fill-opacity:1;fill-rule:evenodd;stroke:none"
         d="m 2510.03,3667.62 c -25.82,321.21 393.15,458.4 585.42,383.06 -44.14,-200.54 -273.41,-473.63 -585.42,-383.06" /><path
         id="path478"
         style="fill:#57c374;fill-opacity:1;fill-rule:evenodd;stroke:none"
         d="m 2513.27,3675.81 c 45.18,64.36 54.47,150.31 90.86,192.98 20.6,24.15 18.25,-47.82 43.24,-28.45 92.81,71.94 77.67,143.42 99.72,157.19 26.74,16.69 32.18,-76.28 59.01,-60.07 83.29,50.35 87.15,113.01 106.33,115.11 16.71,1.84 -26.1,-60.4 -9.7,-57.66 29.15,4.89 86.62,46.54 142.37,33.08 21.24,-5.13 -79.66,-50.33 -114.07,-80.54 -12.97,-11.38 87.86,-16.77 73.11,-29.42 -27.49,-23.58 -142.13,-14.47 -212.32,-66.85 -14.98,-11.18 147.81,-25.15 127.86,-38.4 -31.31,-20.79 -181.14,18.96 -280.43,-60.59 -20.16,-16.14 119.55,-19.55 95.65,-43.19 -42.17,-41.69 -135.74,18.17 -221.63,-33.19" /><path
         id="path480"
         style="fill:#3b9555;fill-opacity:1;fill-rule:evenodd;stroke:none"
         d="m 2520.07,3661.5 c -7.61,-9.5 -22.02,2.14 -13.52,16.37 77.06,128.9 365.23,289.58 507.06,343.62 6.33,2.41 10.25,-4.31 4.1,-7.17 -157.03,-73.38 -400.42,-231.44 -497.64,-352.82" /><path
         id="path482"
         style="fill:#f6bd7a;fill-opacity:1;fill-rule:evenodd;stroke:none"
         d="m 2188.1,2592.31 h 508.88 c 35.77,0 65.03,29.27 65.03,65.03 v 699.92 c 0,35.77 -29.26,65.03 -65.03,65.03 H 2188.1 c -35.76,0 -65.02,-29.26 -65.02,-65.03 v -699.92 c 0,-35.76 29.26,-65.03 65.02,-65.03" /><path
         id="path484"
         style="fill:#f8cd99;fill-opacity:1;fill-rule:evenodd;stroke:none"
         d="m 2595.25,3422.29 c -20.44,-224.42 -195.36,-399.73 -408.17,-399.73 -21.77,0 -43.15,1.84 -64,5.38 v 324 c 0,38.69 29.26,70.35 65.03,70.35 h 407.14" /><path
         id="path486"
         style="fill:#e6a862;fill-opacity:1;fill-rule:evenodd;stroke:none"
         d="m 2762.01,2984.52 c -1.59,-9.8 -1.47,-20.47 0,-31.83 v -290.03 c 0,-38.69 -29.26,-70.35 -65.03,-70.35 h -508.87 c -35.77,0 -65.03,31.66 -65.03,70.35 v 14.79 c 248.09,-85.14 533.78,17.04 638.93,307.07" /><path
         id="path488"
         style="fill:#246734;fill-opacity:1;fill-rule:evenodd;stroke:none"
         d="m 2465.1,3801.75 c 21.59,321.53 -399.14,453.2 -590.41,375.33 46.77,-199.93 279.6,-469.99 590.41,-375.33" /><path
         id="path490"
         style="fill:#41a35c;fill-opacity:1;fill-rule:evenodd;stroke:none"
         d="m 2461.74,3809.9 c -46.02,63.76 -56.44,149.58 -93.39,191.76 -20.9,23.89 -17.62,-48.05 -42.86,-29.01 -93.74,70.73 -79.54,142.39 -101.77,155.87 -26.96,16.34 -31.18,-76.7 -58.22,-60.84 -83.95,49.25 -88.63,111.85 -107.83,113.7 -16.73,1.61 26.89,-60.06 10.45,-57.52 -29.19,4.5 -87.21,45.38 -142.79,31.2 -21.16,-5.41 80.32,-49.28 115.13,-79.04 13.11,-11.2 -87.63,-17.92 -72.72,-30.37 27.79,-23.22 142.3,-12.6 213.18,-64.06 15.13,-10.98 -147.47,-27.09 -127.34,-40.08 31.58,-20.37 180.86,21.34 281.2,-56.9 20.36,-15.87 -119.29,-21.12 -95.08,-44.43 42.71,-41.14 135.48,19.94 222.04,-30.28" /><path
         id="path492"
         style="fill:#246734;fill-opacity:1;fill-rule:evenodd;stroke:none"
         d="m 2455.13,3795.5 c 7.74,-9.41 22,2.42 13.3,16.55 -78.74,127.87 -368.99,284.75 -511.53,336.92 -6.36,2.33 -10.19,-4.44 -4,-7.23 157.98,-71.3 403.44,-226.15 502.23,-346.24" /><path
         id="path494"
         style="fill:#47ae64;fill-opacity:1;fill-rule:evenodd;stroke:none"
         d="m 2447.35,3883.5 c 191.3,259.32 -92.36,596.8 -295.47,634.16 -68.22,-193.67 -17.41,-546.6 295.47,-634.16" /><path
         id="path496"
         style="fill:#57c374;fill-opacity:1;fill-rule:evenodd;stroke:none"
         d="m 2448.92,3892.17 c -4.46,78.51 32.96,156.44 24.54,211.88 -4.77,31.39 -40.73,-31 -51.74,-1.37 -40.92,110.06 9.63,162.81 -1.85,186.14 -13.92,28.28 -67.57,-47.85 -81.81,-19.93 -44.24,86.7 -14.48,141.97 -29.67,153.88 -13.22,10.36 -9.66,-65.09 -22.16,-54.11 -22.18,19.52 -49.05,85.2 -103.52,103.17 -20.75,6.84 41.15,-84.77 54.46,-128.58 5.02,-16.51 -83.49,32.07 -77.63,13.55 10.92,-34.53 113.14,-87.23 145.16,-168.76 6.83,-17.39 -138.86,56.57 -128.89,34.79 15.65,-34.16 163.9,-79.39 206.34,-199.34 8.61,-24.34 -111.9,46.43 -104.05,13.74 13.84,-57.66 124.91,-56.14 170.82,-145.06" /><path
         id="path498"
         style="fill:#3b9555;fill-opacity:1;fill-rule:evenodd;stroke:none"
         d="m 2435.59,3883.59 c 1.46,-12.08 19.84,-9.79 20.12,6.79 2.49,150.15 -157.65,438.63 -249.67,559.32 -4.11,5.39 -10.99,1.75 -7.28,-3.93 94.75,-145.14 218.23,-407.78 236.83,-562.18" /><path
         id="path500"
         style="fill:#246734;fill-opacity:1;fill-rule:evenodd;stroke:none"
         d="m 2471.72,3801.31 c -137.62,175.45 51.66,414.67 191.38,444.67 51.15,-132.55 23.23,-377.7 -191.38,-444.67" /><path
         id="path502"
         style="fill:#41a35c;fill-opacity:1;fill-rule:evenodd;stroke:none"
         d="m 2470.46,3807.28 c 1.47,54.39 -26.01,107.52 -21.31,146.04 2.65,21.81 28.8,-20.61 35.81,0.11 26.06,76.96 -9.99,112.42 -2.53,128.78 9.04,19.85 47.71,-31.71 56.99,-12.1 28.82,60.87 7.1,98.49 17.37,107.03 8.93,7.44 8.01,-44.82 16.43,-36.96 14.94,13.95 32.18,59.93 69.49,73.47 14.21,5.16 -26.72,-59.47 -35.03,-90.05 -3.14,-11.52 57.09,23.9 53.41,10.97 -6.85,-24.11 -76.46,-62.65 -96.94,-119.69 -4.37,-12.18 94.88,41.96 88.43,26.69 -10.12,-23.95 -111.73,-58.26 -138.62,-142.09 -5.46,-17.02 76.43,34.4 71.67,11.63 -8.39,-40.16 -85.24,-41.38 -115.17,-103.83" /><path
         id="path504"
         style="fill:#266d39;fill-opacity:1;fill-rule:evenodd;stroke:none"
         d="m 2479.85,3801.62 c -0.76,-8.39 -13.52,-7.18 -14.05,4.28 -4.79,103.8 100.05,306.6 161.23,391.97 2.73,3.81 7.56,1.43 5.11,-2.57 -62.56,-102.33 -142.58,-286.51 -152.29,-393.68" /><path
         id="path506"
         style="fill:#246734;fill-opacity:1;fill-rule:evenodd;stroke:none"
         d="m 2520.33,3491.04 c -21.55,257.14 -162.62,281.29 -309.81,279.18 -144.45,-2.07 -298.35,-65.32 -373.72,-129.94 69.44,-29.06 190.23,-49.96 317.24,-80.3 127.19,-30.38 257.34,-77.19 366.29,-68.94" /><path
         id="path508"
         style="fill:#41a35c;fill-opacity:1;fill-rule:evenodd;stroke:none"
         d="m 2515.56,3502.69 c -28.72,38.56 -51.77,79.04 -75.18,111.97 -22.33,31.41 -44.56,57.45 -68.73,72.07 -27.14,16.41 2.78,-37.25 -27.17,-26.12 -109.94,40.86 -125.86,87.25 -151.48,91.14 -15.46,2.34 -14.92,-11.34 -14.58,-24.94 0.34,-13.58 0.91,-26.31 -14.82,-25.33 -98.49,6.16 -127.6,41.24 -146.79,35.05 -16.87,-5.43 49.29,-25.9 32.66,-30.55 -30.05,-8.39 -103.88,-10.32 -153.08,-51.38 -19.69,-16.42 100.52,15.32 146.77,12.97 17.33,-0.88 -77.11,-51.31 -57,-50.27 18.74,0.96 54.18,16.56 96.14,27.43 40.65,10.53 87.91,15.32 130.42,5.5 9.09,-2.1 -21.57,-12.66 -51.09,-25.27 -30.42,-12.98 -60.1,-28.14 -47.98,-29.03 18.93,-1.39 57.67,14.22 106.98,21.05 48.09,6.65 106.67,3.39 163.77,-29.29 11.85,-6.78 -11.98,-11.44 -34.85,-16.38 -22.64,-4.91 -44.38,-10.07 -30.19,-20.08 25.96,-18.31 52.28,-16.39 84.08,-15.76 31.58,0.62 68.36,-0.44 112.12,-32.78" /><path
         id="path510"
         style="fill:#246734;fill-opacity:1;fill-rule:evenodd;stroke:none"
         d="m 2508.96,3489.12 c 9.48,-11.07 18.22,2.45 6.58,19.16 -51.71,74.31 -152.44,149.24 -266.21,177.28 -113.51,27.97 -239.12,9.18 -319.29,-12.83 -7.36,-2.02 -8.6,-9.52 -1.27,-8.03 91.32,18.57 211.23,27.63 318.34,-3.53 108.02,-31.43 202.54,-102.82 261.85,-172.05" /><path
         id="path512"
         style="fill:#47ae64;fill-opacity:1;fill-rule:evenodd;stroke:none"
         d="m 2494.87,3530.23 c -281.79,156.33 -579.96,-168.41 -590.86,-374.63 200.83,-42.74 544.29,53.09 590.86,374.63" /><path
         id="path514"
         style="fill:#57c374;fill-opacity:1;fill-rule:evenodd;stroke:none"
         d="m 2486.06,3530.67 c -77.28,-14.53 -159.38,12.55 -213.28,-2.94 -30.5,-8.76 36,-36.39 8.03,-51.13 -103.88,-54.75 -162.7,-11.41 -184.35,-25.8 -26.26,-17.44 56.14,-60.84 30.28,-78.57 -80.28,-55.01 -138.92,-32.62 -148.77,-49.21 -8.59,-14.45 65.79,-1.21 56.5,-15.01 -16.5,-24.51 -78.18,-59.61 -88.98,-115.95 -4.11,-21.45 78.76,51.72 120.5,70.57 15.72,7.1 -21.06,-86.93 -3.45,-78.74 32.84,15.28 71.95,123.42 148.67,165.67 16.37,9.03 -38.23,-144.98 -17.9,-132.29 31.87,19.91 57.63,172.76 171.12,230.28 23.03,11.67 -31.64,-116.94 -0.24,-104.95 55.4,21.15 39.6,131.09 121.87,188.07" /><path
         id="path516"
         style="fill:#3b9555;fill-opacity:1;fill-rule:evenodd;stroke:none"
         d="m 2496.28,3518.55 c 11.81,3 7.17,20.94 -9.32,19.08 -149.22,-16.86 -414.68,-212.79 -522.54,-319.58 -4.81,-4.77 -0.31,-11.12 4.84,-6.71 131.74,112.64 376.31,268.89 527.02,307.21" /><path
         id="path518"
         style="fill:#47ae64;fill-opacity:1;fill-rule:evenodd;stroke:none"
         d="m 2473.99,3723.3 c -117.27,238.09 -471.5,158.36 -575.71,23.94 115.83,-123.22 393.22,-219.65 575.71,-23.94" /><path
         id="path520"
         style="fill:#57c374;fill-opacity:1;fill-rule:evenodd;stroke:none"
         d="m 2468.24,3727.73 c -59.11,26.46 -101.95,83.33 -145.69,98.16 -24.76,8.39 7.26,-41.53 -18.59,-38.37 -95.99,11.73 -115.44,68.68 -136.85,69.11 -25.95,0.53 9.42,-67.53 -16.4,-67.38 -80.16,0.46 -109.32,43.15 -123.78,36.55 -12.58,-5.75 43.95,-31.71 31.19,-36.69 -22.67,-8.84 -80.89,-3.63 -114.65,-36.67 -12.86,-12.59 77.58,-1.99 114.67,-8.84 13.97,-2.58 -55.07,-48.93 -39.31,-51.66 29.4,-5.08 106.64,49.74 178.4,42.3 15.31,-1.59 -93.94,-80.15 -74.24,-81.11 30.91,-1.49 120.12,89.84 223.92,75.47 21.06,-2.92 -76.32,-64.28 -49.44,-70.91 47.42,-11.7 88.35,70.12 170.77,70.04" /><path
         id="path522"
         style="fill:#3b9555;fill-opacity:1;fill-rule:evenodd;stroke:none"
         d="m 2469.47,3714.73 c 9.39,-3.51 14.68,10.81 2.65,17.29 -108.89,58.66 -380.51,50.73 -503.64,29.11 -5.49,-0.97 -5.43,-7.38 0.12,-6.81 142.03,14.36 380.9,5.25 500.87,-39.59" /><path
         id="path524"
         style="fill:#2b7c3f;fill-opacity:1;fill-rule:evenodd;stroke:none"
         d="m 2503.01,3514 c -93.36,124.4 -97.09,305.34 -8.1,411.03 91.51,108.69 293.61,155.15 391.1,160.7 -29.44,-67.94 -100.83,-165.09 -170.24,-273.18 C 2646.29,3704.32 2585.9,3582.42 2503.01,3514" /><path
         id="path526"
         style="fill:#41a35c;fill-opacity:1;fill-rule:evenodd;stroke:none"
         d="m 2498.45,3525.52 c -5.91,46.91 -17.16,91.33 -23,130.65 -5.57,37.49 -7.56,71.1 -0.38,97.95 8.06,30.13 23.41,-28.32 37.07,-0.01 50.12,103.92 29.78,147.66 45.3,167.88 9.37,12.2 18.3,2.13 27.34,-7.75 9.01,-9.86 17.29,-19.28 27.77,-7.86 65.65,71.49 62.38,116.22 80.2,124.91 15.68,7.64 -17.29,-51.97 -2.34,-43.93 27.03,14.54 80.71,63.49 143.58,67.91 25.16,1.77 -81.71,-57.66 -112.92,-90.84 -11.69,-12.44 89.65,16.17 74.69,3.2 -13.94,-12.09 -49.71,-25.19 -86.87,-46.08 -36.01,-20.24 -72.8,-49.06 -96.23,-84.99 -5.02,-7.68 23.91,5.72 53.44,16.91 30.43,11.52 61.8,21 53.81,12.11 -12.47,-13.89 -50.58,-29.23 -90.2,-57.99 -38.64,-28.06 -77.96,-70.31 -96.18,-132.4 -3.77,-12.88 16.29,0.06 35.88,12.14 19.4,11.96 38.33,23.11 35.09,6.35 -5.93,-30.69 -25.9,-47.28 -48.87,-68.5 -22.83,-21.08 -48.19,-46.9 -57.18,-99.66" /><path
         id="path528"
         style="fill:#246734;fill-opacity:1;fill-rule:evenodd;stroke:none"
         d="m 2512.38,3520.4 c 0.82,-14.32 -14.58,-10.69 -17.72,9.1 -13.98,87.94 6.38,209.73 67.96,307.16 61.42,97.21 163.3,169.49 235.15,208.52 6.61,3.59 12.59,-0.88 6.38,-4.82 -77.42,-49.07 -168.63,-124.38 -223.35,-219.49 -55.17,-95.91 -73.54,-210.95 -68.42,-300.47" /><path
         id="path530"
         style="fill:#2b7c3f;fill-opacity:1;fill-rule:evenodd;stroke:none"
         d="m 2497.76,3524.53 c 78.64,128.32 225.14,219.47 364.58,202.51 143.4,-17.44 276.07,-130.63 335.01,-210.51 -74.19,-12.73 -196.59,-5.99 -327.17,-7.04 -130.76,-1.05 -268.09,-17.46 -372.42,15.04" /><path
         id="path532"
         style="fill:#43ae61;fill-opacity:1;fill-rule:evenodd;stroke:none"
         d="m 2505.03,3534.82 c 36.64,31.12 68.18,65.39 98.4,92.23 28.81,25.6 56.32,45.99 83.15,54.8 30.13,9.9 -11.07,-35.66 20.61,-31.54 116.32,15.13 142.23,56.76 168.07,54.8 15.6,-1.19 12.01,-14.39 8.61,-27.58 -3.38,-13.15 -6.78,-25.43 8.76,-28 97.36,-16.12 133.6,11.53 150.91,1.2 15.23,-9.09 -53.84,-14.17 -38.69,-22.44 27.41,-14.92 98.92,-33.38 137.65,-84.43 15.49,-20.42 -94.52,37.49 -140.12,45.58 -17.08,3.04 63.63,-67.3 44.27,-61.78 -18.05,5.15 -49.08,28.3 -87.54,48.32 -37.24,19.38 -82.23,34.65 -125.85,34.63 -9.32,-0.01 18.19,-17.18 44.11,-36.09 26.74,-19.49 52.25,-40.92 40.25,-39.06 -18.76,2.89 -53.02,26.8 -99.53,44.52 -45.37,17.28 -103.19,27.25 -166.17,8.22 -13.06,-3.94 9.12,-13.83 30.29,-23.78 20.95,-9.86 40.98,-19.77 24.91,-26.34 -29.41,-12.02 -54.63,-4.24 -85.48,3.51 -30.63,7.7 -66.71,14.92 -116.61,-6.77" /><path
         id="path534"
         style="fill:#266d39;fill-opacity:1;fill-rule:evenodd;stroke:none"
         d="m 2508.42,3520.12 c -11.73,-8.67 -17.2,6.47 -2.12,20.14 67.08,60.8 182.05,111.21 299.22,112.99 116.89,1.78 235.08,-44.72 308.25,-84.16 6.73,-3.63 6.25,-11.22 -0.56,-8.12 -84.82,38.6 -199.64,74.35 -311,68.02 -112.32,-6.38 -220.46,-54.72 -293.79,-108.87" /><path
         id="path536"
         style="fill:#47ae64;fill-opacity:1;fill-rule:evenodd;stroke:none"
         d="m 2507.99,3538.57 c 238.49,84.16 426.8,-206.1 408.29,-367.12 -161.01,-6.82 -414.27,112.21 -408.29,367.12" /><path
         id="path538"
         style="fill:#57c374;fill-opacity:1;fill-rule:evenodd;stroke:none"
         d="m 2514.86,3537.76 c 57.9,-21.34 124.97,-11.11 164.66,-30.13 22.47,-10.78 -32.61,-23.47 -12.88,-38.53 73.23,-55.94 124.41,-30.09 139.29,-44.05 18.04,-16.93 -51.4,-39.75 -33.7,-56.84 54.94,-53.07 103.25,-43.41 108.7,-57.53 4.74,-12.3 -51.08,7.66 -45.7,-4.24 9.57,-21.11 52.72,-56.34 53.72,-101.35 0.38,-17.14 -54.19,50.32 -84.04,70.35 -11.24,7.55 4.94,-70.02 -7.62,-61.38 -23.4,16.11 -39.55,104.92 -93.39,147.64 -11.5,9.12 10.63,-117.19 -3.43,-104.72 -22.06,19.58 -22.03,141.22 -102.34,200.57 -16.29,12.04 9.2,-94.64 -13.54,-81.25 -40.1,23.61 -13.51,106.62 -69.73,161.46" /><path
         id="path540"
         style="fill:#3b9555;fill-opacity:1;fill-rule:evenodd;stroke:none"
         d="m 2505.36,3529.72 c -8.73,3.87 -2.8,17.14 9.71,13.55 113.28,-32.54 293.11,-218.86 362.62,-315.6 3.1,-4.32 -1.21,-8.64 -4.61,-4.56 -87.24,104.39 -256.09,257.26 -367.72,306.61" /><path
         id="path542"
         style="fill:#246734;fill-opacity:1;fill-rule:evenodd;stroke:none"
         d="m 2502.19,3542.69 c -246.95,-70.64 -232.08,-421.71 -122.02,-544.12 137.3,89.07 276.94,336.6 122.02,544.12" /><path
         id="path544"
         style="fill:#3b9155;fill-opacity:1;fill-rule:evenodd;stroke:none"
         d="m 2496.98,3537.97 c -35.38,-51.73 -96.93,-82.72 -118.59,-121.82 -12.26,-22.13 40.8,-0.24 33.34,-24.31 -27.72,-89.39 -85.3,-98.1 -89.4,-118.41 -4.98,-24.63 65.94,-2.67 61.34,-27.23 -14.26,-76.26 -59.94,-96.67 -56.14,-111.57 3.3,-12.99 37.77,36.38 40.31,23.37 4.51,-23.11 -10.49,-77.65 15.16,-115.5 9.77,-14.42 15.27,73.53 28.18,107.68 4.86,12.86 37.11,-60.88 42.42,-46.34 9.9,27.12 -28.98,110.12 -9.53,177.17 4.14,14.31 60.14,-103.28 64.45,-84.67 6.74,29.18 -64.85,129.87 -33.28,226.24 6.41,19.55 48.05,-83.75 59,-59.3 19.31,43.14 -51.54,96.22 -37.26,174.69" /><path
         id="path546"
         style="fill:#246734;fill-opacity:1;fill-rule:evenodd;stroke:none"
         d="m 2509.57,3536.9 c 4.96,8.34 -7.76,15.84 -16,5.51 -74.63,-93.58 -113.9,-353.62 -114.53,-474.59 -0.03,-5.4 6.08,-6.44 6.5,-1.06 10.81,137.73 60.65,363.62 124.03,470.14" /><path
         id="path548"
         style="fill:#c2c4c2;fill-opacity:1;fill-rule:evenodd;stroke:none"
         d="m 4047.3,2538.43 c 247.8,0 449.91,24.21 449.91,53.88 0,29.69 -202.11,53.89 -449.91,53.89 -247.8,0 -449.9,-24.2 -449.9,-53.89 0,-29.67 202.1,-53.88 449.9,-53.88" /><path
         id="path550"
         style="fill:#72b844;fill-opacity:1;fill-rule:evenodd;stroke:none"
         d="m 4073.1,3657.65 c 68.68,180.29 183.82,474.39 403.23,640.43 -276.4,-53.76 -434.1,-414.83 -403.23,-640.43" /><path
         id="path552"
         style="fill:#4b822f;fill-opacity:1;fill-rule:evenodd;stroke:none"
         d="m 4658.92,3470.66 c -259.34,147.68 -515.87,156.97 -625.28,-48.24 47.85,288.71 448.07,305.82 625.28,48.24" /><path
         id="path554"
         style="fill:#40702c;fill-opacity:1;fill-rule:evenodd;stroke:none"
         d="m 4064.87,3539.15 c 112.67,249.05 468.46,415.09 652.28,456.6 -248.1,66.5 -604.86,-162.37 -652.28,-456.6" /><path
         id="path556"
         style="fill:#40702c;fill-opacity:1;fill-rule:evenodd;stroke:none"
         d="m 4100.38,3413.37 c -53.27,104.53 -432.88,290.56 -723.44,338 179.99,94.72 652.9,-42.9 723.44,-338" /><path
         id="path558"
         style="fill:#40702c;fill-opacity:1;fill-rule:evenodd;stroke:none"
         d="m 4044.4,3582.86 c -59.29,248.28 -419.24,432.87 -567.49,314.27 188.78,195.19 557.33,104.69 567.49,-314.27" /><path
         id="path560"
         style="fill:#72b844;fill-opacity:1;fill-rule:evenodd;stroke:none"
         d="m 4040.07,3809.04 c -89.76,184.27 -363.19,492.83 -650.26,584.69 278.75,51.69 614.79,-219.1 650.26,-584.69" /><path
         id="path562"
         style="fill:#4b822f;fill-opacity:1;fill-rule:evenodd;stroke:none"
         d="m 4062.58,3408.52 c -98.71,154.11 -410.6,-31.82 -457.6,-214.34 -10.37,263.05 421.18,523.77 457.6,214.34" /><path
         id="path564"
         style="fill:#be6639;fill-opacity:1;fill-rule:evenodd;stroke:none"
         d="m 4111.55,3001.05 c -6.95,-83.44 -123.48,-16.54 -119.97,25.72 29.16,283.47 46.12,575.44 24.82,859.91 -4.98,66.62 57.1,73.21 62.09,6.59 21.77,-290.9 55.05,-568.43 33.06,-892.22" /><path
         id="path566"
         style="fill:#61a631;fill-opacity:1;fill-rule:evenodd;stroke:none"
         d="m 4038.54,3708.98 c -3.51,204.92 -129.08,577.24 -350.47,781.76 274.5,-70.89 449.5,-430.21 350.47,-781.76" /><path
         id="path568"
         style="fill:#e18352;fill-opacity:1;fill-rule:evenodd;stroke:none"
         d="m 3783.01,2568.33 h 535.75 c 28.38,0 51.59,23.22 51.59,51.59 v 403.76 c 0,28.37 -23.21,51.59 -51.59,51.59 h -535.75 c -28.38,0 -51.59,-23.22 -51.59,-51.59 v -403.76 c 0,-28.37 23.21,-51.59 51.59,-51.59" /><path
         id="path570"
         style="fill:#ee9767;fill-opacity:1;fill-rule:evenodd;stroke:none"
         d="m 4203.59,3075.27 c -20.44,-137.07 -195.36,-244.15 -408.16,-244.15 -21.79,0 -43.15,1.12 -64.01,3.28 v 197.9 c 0,23.63 29.26,42.97 65.03,42.97 h 407.14" /><path
         id="path572"
         style="fill:#ce7546;fill-opacity:1;fill-rule:evenodd;stroke:none"
         d="m 4370.35,2807.89 c -1.59,-6 -1.47,-12.51 0,-19.44 V 2611.3 c 0,-23.64 -29.26,-42.97 -65.03,-42.97 h -508.87 c -35.77,0 -65.03,19.33 -65.03,42.97 v 9.03 c 248.09,-52.01 533.78,10.41 638.93,187.56" /><path
         id="path574"
         style="fill:#4b822f;fill-opacity:1;fill-rule:evenodd;stroke:none"
         d="m 4047.17,3635.12 c -35.29,199.52 -225.54,384.77 -473.4,540.4 270.23,10.11 524.66,-263.24 473.4,-540.4" /><path
         id="path576"
         style="fill:#549331;fill-opacity:1;fill-rule:evenodd;stroke:none"
         d="m 4055.69,3551.36 c 68.08,162.7 107.37,436.05 221.74,685.07 -151.88,-57.61 -260.69,-417.95 -221.74,-685.07" /><path
         id="path578"
         style="fill:#4b822f;fill-opacity:1;fill-rule:evenodd;stroke:none"
         d="m 4060.85,3850.4 c 88.21,186.1 132.66,548.91 337.39,767.91 -183.25,-43.72 -349.03,-445.82 -337.39,-767.91" /><path
         id="path580"
         style="fill:#61a631;fill-opacity:1;fill-rule:evenodd;stroke:none"
         d="m 4062.82,3513.98 c 118.96,153.59 212.56,416.64 430.21,577.41 -209.16,-31.84 -450.53,-350.63 -430.21,-577.41" /><path
         id="path582"
         style="fill:#549331;fill-opacity:1;fill-rule:evenodd;stroke:none"
         d="m 4059.89,3435.5 c -36.51,289.85 -366.44,350.08 -595.1,230.59 187.38,215.43 675.82,218.19 595.1,-230.59" /><path
         id="path584"
         style="fill:#61a631;fill-opacity:1;fill-rule:evenodd;stroke:none"
         d="m 4053.36,3421.11 c -59.46,214.73 -387.62,150.76 -507.43,-37 47.66,241.84 534.23,413.25 507.43,37" /><path
         id="path586"
         style="fill:#72b844;fill-opacity:1;fill-rule:evenodd;stroke:none"
         d="m 4060.52,3610.15 c -85.08,154.1 -344.69,-6.9 -325.37,-203.67 -71.83,266.62 293.98,513.09 325.37,203.67" /><path
         id="path588"
         style="fill:#549331;fill-opacity:1;fill-rule:evenodd;stroke:none"
         d="m 4056.12,3421.72 c 103.87,256.55 382.54,322.21 543.48,227.43 -186.27,164.61 -529.9,146.03 -543.48,-227.43" /><path
         id="path590"
         style="fill:#72b844;fill-opacity:1;fill-rule:evenodd;stroke:none"
         d="m 4050.47,3390.36 c 85.08,154.11 344.69,-6.9 325.38,-203.66 71.82,266.61 -293.99,513.09 -325.38,203.66" /><path
         id="path592"
         style="fill:#549331;fill-opacity:1;fill-rule:evenodd;stroke:none"
         d="m 4061.12,3397.31 c -120.46,169.05 -263.83,-97.12 -235.3,-250.17 -126.72,281.17 189.75,507.75 235.3,250.17" /><path
         id="path594"
         style="fill:#c2c4c2;fill-opacity:1;fill-rule:evenodd;stroke:none"
         d="m 4051.3,393.469 c 199.12,0 361.52,25.703 361.52,57.222 0,31.52 -162.4,57.219 -361.52,57.219 -199.11,0 -361.51,-25.699 -361.51,-57.219 0,-31.519 162.4,-57.222 361.51,-57.222" /><path
         id="path596"
         style="fill:#318148;fill-opacity:1;fill-rule:evenodd;stroke:none"
         d="m 3666.9,1539.32 c 133.81,-23.91 320.03,-313.52 388.22,-423.46 124.37,231.61 -180.06,505.82 -388.22,423.46" /><path
         id="path598"
         style="fill:none;stroke:#3b9155;stroke-width:2.16000009;stroke-linecap:butt;stroke-linejoin:miter;stroke-miterlimit:22.92560005;stroke-dasharray:none;stroke-opacity:1"
         d="m 3666.9,1539.32 c 133.81,-23.91 320.03,-313.52 388.22,-423.46 124.37,231.61 -180.06,505.82 -388.22,423.46 z" /><path
         id="path600"
         style="fill:#256b38;fill-opacity:1;fill-rule:evenodd;stroke:none"
         d="m 3666.9,1539.32 c 78.3,-79.08 54.75,-145.33 131.78,-240.29 65.92,-81.28 153.58,-156.69 256.44,-183.17 9.62,153.07 -269.05,441.45 -388.22,423.46" /><path
         id="path602"
         style="fill:#184321;fill-opacity:1;fill-rule:evenodd;stroke:none"
         d="m 3868.59,1438.74 c -9.8,7.82 -17.55,-2.03 -7.76,-9.85 103.52,-82.02 179.77,-192.25 185.21,-309.02 3,-1.39 6.02,-2.73 9.08,-4.02 2.94,4.7 5.53,9.46 7.94,14.27 -10.52,114.25 -86.13,222.77 -194.47,308.62" /><path
         id="path604"
         style="fill:#84cf50;fill-opacity:1;fill-rule:evenodd;stroke:none"
         d="m 4258.73,2126.39 c -121.78,-77.84 -50.36,-413.42 -209.54,-573.84 -189.13,135.11 -8.85,533.98 209.54,573.84" /><path
         id="path606"
         style="fill:#5da332;fill-opacity:1;fill-rule:evenodd;stroke:none"
         d="m 4258.73,2126.39 c -53.83,-103.09 8.4,-421.41 -209.54,-573.84 -20.7,193.83 85.18,557.42 209.54,573.84" /><path
         id="path608"
         style="fill:#3a692a;fill-opacity:1;fill-rule:evenodd;stroke:none"
         d="m 4112.07,1963.15 c 6.25,11.78 15.51,4.34 9.27,-7.44 -82.75,-155.18 -71.66,-688.96 -61.11,-871.4 0.76,-13.33 -19.53,-14.47 -20.27,-1.14 -10.85,187.44 -13.18,720 72.11,879.98" /><path
         id="path610"
         style="fill:#44a35f;fill-opacity:1;fill-rule:evenodd;stroke:none"
         d="m 4723.02,1366.47 c -129.92,63.33 -379.04,-172.58 -598.93,-120.4 16.68,231.84 451.04,285.98 598.93,120.4" /><path
         id="path612"
         style="fill:#3b9155;fill-opacity:1;fill-rule:evenodd;stroke:none"
         d="m 4723.02,1366.47 c -129.92,63.33 -355.22,-226.89 -598.93,-120.4 87.71,137.52 507.82,210.56 598.93,120.4" /><path
         id="path614"
         style="fill:#1e562a;fill-opacity:1;fill-rule:evenodd;stroke:none"
         d="m 4486.72,1406.5 c 13.32,0.58 13.81,-12.75 0.49,-13.32 -222.68,-8.84 -430.98,-121.68 -421.01,-373.34 0.45,-11.18 1.32,-22.84 2.66,-34.981 1.45,-13.269 -18.72,-15.488 -20.18,-2.211 -31.01,282.542 182.48,413.722 438.04,423.852" /><path
         id="path616"
         style="fill:#84cf50;fill-opacity:1;fill-rule:evenodd;stroke:none"
         d="m 3454.08,1303.65 c 111.14,60.93 339.24,-135.26 529.65,-80.33 -24.34,202.37 -407.06,231.56 -529.65,80.33" /><path
         id="path618"
         style="fill:#5da332;fill-opacity:1;fill-rule:evenodd;stroke:none"
         d="m 3454.08,1303.65 c 122.65,-31.55 402.01,-135.54 529.65,-80.33 -82.59,116.78 -453.64,163.12 -529.65,80.33" /><path
         id="path620"
         style="fill:#3a692a;fill-opacity:1;fill-rule:evenodd;stroke:none"
         d="m 3650.49,1350.92 c -11.68,-0.06 -11.55,-11.76 0.14,-11.7 195.41,1.61 382.6,-88.49 384.43,-309.34 0.08,-9.81 -0.21,-20.06 -0.86,-30.751 -0.72,-11.688 17.05,-12.77 17.76,-1.09 15.31,248.781 -177.19,354.711 -401.47,352.881" /><path
         id="path622"
         style="fill:#f6bd7a;fill-opacity:1;fill-rule:evenodd;stroke:none"
         d="m 3864.39,450.691 c 124.61,0 249.21,0 373.81,0 78.73,150.239 117.85,327.848 122.75,529.098 0.17,7.359 0.28,14.172 -3.99,20.031 -4.26,5.86 -10.24,8.98 -17.17,8.98 h -576.98 c -6.93,0 -12.91,-3.12 -17.18,-8.98 -4.26,-5.859 -3.72,-12.672 -3.98,-20.031 -7.71,-215.117 34.47,-390.48 122.74,-529.098" /><path
         id="path624"
         style="fill:#e6a862;fill-opacity:1;fill-rule:evenodd;stroke:none"
         d="m 3824.85,524.84 c 158.37,-46.149 442.01,-9.961 505.45,184.902 -22.3,-90.531 -48.93,-178.91 -92.1,-259.051 -124.6,0 -249.2,0 -373.81,0 -11.47,18.661 -30.1,50.149 -39.54,74.149" /><path
         id="path626"
         style="fill:#f8cd99;fill-opacity:1;fill-rule:evenodd;stroke:none"
         d="m 4151.01,1008.8 h -388.2 c -6.93,0 -12.91,-3.12 -17.18,-8.98 -4.26,-5.851 -3.8,-12.672 -3.98,-20.031 -1.58,-66.269 1.97,-133.957 8.86,-202.57 167.79,-15.809 400.5,71.75 400.5,231.581" /><path
         id="path628"
         style="fill:#44a35f;fill-opacity:1;fill-rule:evenodd;stroke:none"
         d="m 3468.76,1044.52 c 95.92,96.53 390.46,-36.12 569.82,78.34 -86.59,200.99 -489.58,114.67 -569.82,-78.34" /><path
         id="path630"
         style="fill:#3b9155;fill-opacity:1;fill-rule:evenodd;stroke:none"
         d="m 3468.76,1044.53 c 105.6,28.96 386.09,-91.8 569.82,78.33 -120.55,95.14 -516.73,30.03 -569.82,-78.33" /><path
         id="path632"
         style="fill:#1e562a;fill-opacity:1;fill-rule:evenodd;stroke:none"
         d="m 3666.47,1153.26 c -12.01,-3.61 -8.33,-15.61 3.7,-12 126.5,38.49 260.69,38.47 359.94,-23.58 2.85,1.67 5.68,3.39 8.47,5.18 -2.19,5.09 -4.63,9.94 -7.22,14.67 -100.05,56.43 -232.47,56.01 -364.89,15.73" /><path
         id="path634"
         style="fill:#44a35f;fill-opacity:1;fill-rule:evenodd;stroke:none"
         d="m 3678.13,1789.78 c 117.57,-8.19 305.01,-240.59 374.01,-329.04 82.66,170.55 -202.09,385.74 -374.01,329.04" /><path
         id="path636"
         style="fill:#3b9155;fill-opacity:1;fill-rule:evenodd;stroke:none"
         d="m 3678.13,1789.78 c 40.63,-184.34 324.68,-276.86 374.01,-329.04 -5.93,132.87 -272.93,355.62 -374.01,329.04" /><path
         id="path638"
         style="fill:#1e562a;fill-opacity:1;fill-rule:evenodd;stroke:none"
         d="m 3861.35,1721.8 c -9.17,5.83 -14.95,-3.39 -5.77,-9.22 96.85,-61.1 172.82,-149.06 188.37,-249.22 2.7,-0.92 5.43,-1.8 8.19,-2.62 2.09,4.32 3.89,8.66 5.52,13.04 -19.68,97.52 -94.94,184.06 -196.31,248.02" /><path
         id="path640"
         style="fill:#a7dc71;fill-opacity:1;fill-rule:evenodd;stroke:none"
         d="m 3900.13,1880.76 c 78.25,-37.84 142.88,-248.34 165.87,-327.81 103.36,94.11 -32.62,319.5 -165.87,327.81" /><path
         id="path642"
         style="fill:#84cf50;fill-opacity:1;fill-rule:evenodd;stroke:none"
         d="m 3900.13,1880.76 c -22.72,-137.35 146.4,-278.56 165.87,-327.81 32.36,92.6 -89.39,318.3 -165.87,327.81" /><path
         id="path644"
         style="fill:#3a692a;fill-opacity:1;fill-rule:evenodd;stroke:none"
         d="m 4006.93,1783.98 c -4.68,6.51 -11.16,1.78 -6.47,-4.72 49.56,-68.38 77.46,-149.43 60.64,-222.27 1.61,-1.38 3.24,-2.72 4.9,-4.04 2.61,2.38 5.04,4.87 7.35,7.41 13.26,72.17 -14.54,152.05 -66.42,223.62" /><path
         id="path646"
         style="fill:#318148;fill-opacity:1;fill-rule:evenodd;stroke:none"
         d="m 4424.82,1780.57 c -132.51,-30.27 -304.71,-328.43 -367.57,-441.5 -124.56,179.62 161.6,475.51 367.57,441.5" /><path
         id="path648"
         style="fill:none;stroke:#3b9155;stroke-width:2.16000009;stroke-linecap:butt;stroke-linejoin:miter;stroke-miterlimit:22.92560005;stroke-dasharray:none;stroke-opacity:1"
         d="m 4424.82,1780.57 c -132.51,-30.27 -304.71,-328.43 -367.57,-441.5 -124.56,179.62 161.6,475.51 367.57,441.5 z" /><path
         id="path650"
         style="fill:#256b38;fill-opacity:1;fill-rule:evenodd;stroke:none"
         d="m 4424.82,1780.57 c -119.41,-66.25 -76.53,-380.05 -367.57,-441.5 -16.9,152.45 247.68,453.79 367.57,441.5" /><path
         id="path652"
         style="fill:#184321;fill-opacity:1;fill-rule:evenodd;stroke:none"
         d="m 4228.16,1670.49 c 9.42,8.27 17.64,-1.2 8.23,-9.48 -99.49,-86.85 -170.39,-200.59 -170.28,-317.5 -2.92,-1.53 -5.88,-3.01 -8.86,-4.44 -3.16,4.55 -5.98,9.18 -8.62,13.88 5.06,114.62 75.41,226.62 179.53,317.54" /><path
         id="path654"
         style="fill:#318148;fill-opacity:1;fill-rule:evenodd;stroke:none"
         d="m 4544.03,1139.6 c -97.36,66.42 -388.47,0.14 -497.43,-26.54 40.78,185.09 397.63,177.57 497.43,26.54" /><path
         id="path656"
         style="fill:none;stroke:#3b9155;stroke-width:2.16000009;stroke-linecap:butt;stroke-linejoin:miter;stroke-miterlimit:22.92560005;stroke-dasharray:none;stroke-opacity:1"
         d="m 4544.03,1139.6 c -97.36,66.42 -388.47,0.14 -497.43,-26.54 40.78,185.09 397.63,177.57 497.43,26.54 z" /><path
         id="path658"
         style="fill:#256b38;fill-opacity:1;fill-rule:evenodd;stroke:none"
         d="m 4544.03,1139.6 c -56.18,-40.36 -324.45,-126.38 -497.43,-26.54 86.97,100.62 434.57,110.02 497.43,26.54" /><path
         id="path660"
         style="fill:#184321;fill-opacity:1;fill-rule:evenodd;stroke:none"
         d="m 4358.1,1199.75 c 10.82,-1.11 9.63,-11.91 -1.18,-10.81 -113.88,12.05 -228,-9.91 -302.26,-78.9 -2.71,0.95 -5.39,1.95 -8.07,3.02 1.04,4.68 2.33,9.21 3.75,13.65 75.87,64.36 188.56,85.65 307.76,73.04" /><path
         id="path662"
         style="fill:#a7dc71;fill-opacity:1;fill-rule:evenodd;stroke:none"
         d="m 4285.78,1545.66 c -106.78,-49.89 -198.21,-334.11 -230.82,-441.44 -138.42,129.46 50.01,432.6 230.82,441.44" /><path
         id="path664"
         style="fill:#84cf50;fill-opacity:1;fill-rule:evenodd;stroke:none"
         d="m 4285.78,1545.66 c 28.32,-186.63 -203.52,-375.03 -230.82,-441.44 -42.21,126.12 126.95,429.93 230.82,441.44" /><path
         id="path666"
         style="fill:#3a692a;fill-opacity:1;fill-rule:evenodd;stroke:none"
         d="m 4139.23,1416.39 c 6.46,8.73 15.16,2.2 8.69,-6.53 -68.44,-91.81 -107.72,-201.19 -86.25,-300.25 -2.2,-1.84 -4.43,-3.63 -6.71,-5.39 -3.5,3.28 -6.74,6.69 -9.83,10.18 -16.67,98.08 22.47,205.88 94.1,301.99" /></g></g></svg>