<?xml version="1.0" encoding="UTF-8" standalone="no"?>
<svg
   xmlns:dc="http://purl.org/dc/elements/1.1/"
   xmlns:cc="http://creativecommons.org/ns#"
   xmlns:rdf="http://www.w3.org/1999/02/22-rdf-syntax-ns#"
   xmlns:svg="http://www.w3.org/2000/svg"
   xmlns="http://www.w3.org/2000/svg"
   viewBox="0 0 800 800"
   height="800"
   width="800"
   xml:space="preserve"
   id="svg2"
   version="1.1"><metadata
     id="metadata8"><rdf:RDF><cc:Work
         rdf:about=""><dc:format>image/svg+xml</dc:format><dc:type
           rdf:resource="http://purl.org/dc/dcmitype/StillImage" /></cc:Work></rdf:RDF></metadata><defs
     id="defs6" /><g
     transform="matrix(1.3333333,0,0,-1.3333333,0,800)"
     id="g10"><g
       transform="scale(0.1)"
       id="g12"><path
         id="path14"
         style="fill:#ffffff;fill-opacity:1;fill-rule:nonzero;stroke:none"
         d="M 0,0 H 6000 V 6000 H 0 V 0" /><path
         id="path16"
         style="fill:#58c14d;fill-opacity:1;fill-rule:nonzero;stroke:none"
         d="m 1358.66,4251.05 c -147.93,-63.57 -251.4,-147.35 -304.51,-196.78 -24.21,-22.53 -61.638,-22.55 -85.88,-0.04 v 0 c -25.489,23.68 -27.04,63.48 -3.418,89.02 166.868,180.4 493.808,526.43 1295.128,565 965.65,46.47 1181.92,-670.96 2041.92,-500.96 0,0 -419.78,-33.39 -1224.56,528.63 -637,444.86 -1371.94,95.67 -1385.34,91.47 6,9.1 395.9,589.9 1159.9,589.9 850,0 1220,-1090 2200,-960 0,0 -620,-1110 -1700,-1110 -712.88,0 -1117.48,488.98 -1475.52,816.47 -140.24,128.27 -343.11,162.34 -517.72,87.29" /><path
         id="path18"
         style="fill:#58c14d;fill-opacity:1;fill-rule:nonzero;stroke:none"
         d="m 1692,2062.81 c 44.42,66.11 96.99,126.59 153.2,183.24 28.19,28.26 57.35,55.63 87.82,81.54 15,13.23 30.7,25.62 46.25,38.23 15.87,12.18 31.67,24.49 47.94,36.17 129.73,93.81 274.78,168.18 429.36,214.51 77.24,23.17 156.58,39.55 236.78,49.17 80.27,9.6 160.91,13.01 242.73,8.54 81.48,-6.09 162.13,-22.32 239.94,-47.07 78.09,-24.28 152.27,-58.93 223.53,-97.56 71.26,-38.8 139.49,-82.52 204.99,-129.2 65.66,-46.48 129.52,-95.04 192.32,-144.23 62.93,-49.02 125.01,-98.65 187.63,-146.95 62.72,-48.09 126.17,-94.67 191.14,-138.35 65.16,-43.3 132.3,-82.8 201.44,-117.43 l 52.32,-24.81 c 17.72,-7.56 35.62,-14.58 53.39,-21.91 17.64,-7.77 36.02,-13.27 54.13,-19.53 18.17,-6.13 36.21,-12.68 54.83,-17.05 73.38,-22.02 149.3,-32.73 225.21,-38.36 l 57.12,-2.7 57.26,1.5 28.62,0.84 28.56,2.93 57.11,5.77 93.34,9.43 -45.33,-80.14 c -12.04,-21.28 -23.62,-40.17 -35.92,-59.7 -12.15,-19.37 -24.6,-38.43 -37.33,-57.31 -25.26,-37.87 -51.79,-74.76 -78.89,-111.23 -54.46,-72.7 -112.2,-142.92 -173.28,-210.26 -122.31,-134.33 -256.98,-258.781 -407,-363.699 -37,-26.882 -75.93,-51.101 -114.57,-75.66 l -59.33,-34.789 c -19.71,-11.691 -40.43,-21.703 -60.61,-32.621 -81.56,-42.051 -165.86,-79.699 -253.51,-108.383 l -32.66,-11.289 -33.25,-9.519 c -22.24,-6.129 -44.26,-13.039 -66.67,-18.489 -45.08,-9.941 -89.93,-21.05 -135.76,-27.222 l -34.21,-5.469 c -5.71,-0.84 -11.38,-1.949 -17.12,-2.59 l -17.24,-1.691 -68.98,-6.688 c -11.48,-1.41 -23.03,-1.48 -34.58,-1.929 l -34.61,-1.161 c -23.1,-0.652 -46.17,-2.062 -69.29,-1.082 -92.41,1.18 -185.04,10.493 -276.01,28.731 -90.88,18.519 -180.23,45.199 -265.74,80.691 -85.61,35.25 -167.82,77.918 -246.03,126.188 -78.03,48.57 -152.31,102.32 -223.31,159.32 -141.91,114.181 -270.51,241.181 -398.95,363.821 l -48.32,45.64 -24.2,22.6 c -4.13,3.96 -7.94,7.23 -11.68,10.38 l -11.32,9.73 c -30.65,25.37 -64.83,46.49 -101.32,62.52 -72.94,32.21 -155.09,43.66 -234.3,32.55 -39.8,-5.5 -78.02,-16.5 -115.59,-32.64 -39.09,-16.89 -77.18,-36.21 -114.03,-57.67 -36.73,-21.69 -72.35,-45.36 -106.16,-71.28 -16.91,-12.95 -33.42,-26.4 -49.35,-40.35 -4.01,-3.47 -7.95,-6.99 -11.85,-10.56 -2.45,-2.2 -11.31,-10.54 -19.34,-15.46 -16.53,-10.59 -35.93,-16.8 -55.46,-17.45 -39.212,-1.92 -78.594,19.07 -98.575,52.71 -20.722,33.4 -21.719,77.48 -1.992,111.54 2.246,4.35 5.215,8.23 7.961,12.25 l 4.629,5.59 2.359,2.75 1.543,1.65 11.594,12.31 23.23,24.59 c 16.036,16.21 31.387,32.84 48.111,48.56 65.35,64 136.25,123.35 211.99,175.49 151.41,105.09 322.44,177.93 497.67,227.16 175.86,48.61 357.02,70.62 537.45,77.71 181.43,5.51 365.28,-13.17 539.17,-67.18 86.95,-26.49 171.14,-60.7 252.55,-99.48 81.51,-38.73 160.07,-82.28 238.07,-125.81 77.99,-43.57 155.55,-87.12 235.11,-126.24 79.48,-39.17 161.63,-72.83 246.97,-96.22 85.24,-23.51 173.35,-36.99 262.14,-39.84 88.81,-2.88 178.03,4.86 266.06,19.8 -87.29,-18.7 -176.42,-30.35 -266.19,-31.29 -11.22,-0.05 -22.45,-0.63 -33.67,-0.25 l -33.65,1.51 c -11.21,0.64 -22.49,0.7 -33.67,1.82 l -33.55,3.53 c -22.46,1.9 -44.6,5.94 -66.8,9.7 -22.35,3.2 -44.14,8.94 -66.17,13.73 -87.78,20.72 -172.81,52.1 -254.81,88.94 -82.21,36.58 -161.58,78.46 -240.73,119.62 -79.16,41.18 -158.15,81.94 -239.07,117.51 -80.84,35.7 -163.56,66.23 -248.11,89.61 -168.92,48.21 -345.55,61.96 -520.51,52.68 l -131.76,-11.14 c -10.99,-0.71 -21.9,-2.19 -32.78,-3.82 l -32.68,-4.6 -65.31,-9.16 -16.32,-2.32 -16.15,-3.21 -32.29,-6.34 -64.59,-12.58 c -21.44,-4.53 -42.48,-10.61 -63.74,-15.84 -21.14,-5.63 -42.55,-10.37 -63.45,-16.72 -167.31,-50.08 -328.11,-121.95 -468.85,-223.19 -70.51,-50.3 -136.09,-107.04 -197.3,-168.97 -15.55,-15.13 -30.26,-31.56 -45.5,-47.19 l -22.5,-24.31 -11.25,-12.18 -1.301,-1.42 -0.312,-0.47 c -0.215,-0.3 -0.469,-0.57 -0.735,-0.83 -0.222,-0.71 -0.894,-1.13 -1.074,-1.84 -2.832,-4.76 -2.332,-11.55 0.637,-16.05 3.035,-4.9 8.655,-7.57 14.135,-7.2 2.79,0.09 5.36,1.1 7.58,2.54 -0.73,-1.12 11.53,10.56 19.54,17.6 17.49,15.62 35.47,30.56 53.86,44.95 36.77,28.76 75.36,55 115.29,79.1 40.04,23.87 81.5,45.43 124.17,64.38 44.23,19.62 92.35,34.13 140.94,41.26 97.46,14.68 198.94,1.66 289.75,-37.32 45.42,-19.41 88.16,-45.21 126.57,-76.37 l 14.19,-11.95 c 4.81,-4.01 9.48,-8.01 13.44,-11.74 l 24.98,-22.86 49.21,-46.13 c 130.12,-123.49 256.56,-247.31 393.46,-356.67 68.42,-54.539 139.26,-105.371 212.98,-150.949 73.87,-45.242 150.81,-84.781 230.43,-117.269 79.54,-32.723 162.19,-57.032 246.27,-73.883 84.08,-16.949 169.81,-26.027 255.9,-27.367 21.51,-1.032 43.05,0.308 64.58,0.816 l 32.3,0.973 c 10.77,0.359 21.56,0.347 32.26,1.668 l 64.34,6.051 16.09,1.492 c 5.35,0.57 10.65,1.597 15.98,2.379 l 31.92,5.019 c 42.78,5.539 84.69,15.891 126.85,24.949 20.96,5.012 41.59,11.481 62.41,17.121 l 31.15,8.782 30.65,10.508 c 82.22,26.539 161.65,61.75 238.8,101.179 19.11,10.281 38.71,19.602 57.41,30.641 l 56.31,32.769 c 36.73,23.223 73.77,46.032 109.11,71.539 142.99,99.482 274.13,216.812 393.18,345.402 59.53,64.34 116.01,131.62 169.29,201.3 26.5,34.92 52.48,70.29 77.12,106.45 12.4,18.02 24.56,36.22 36.3,54.55 11.7,18.1 23.59,37.2 33.71,54.67 l 48.01,-70.7 -61.7,-5.67 -30.84,-2.79 -31.03,-0.66 c -20.69,-0.32 -41.39,-0.87 -62.07,-0.95 l -62.07,3.51 c -82.46,6.86 -164.86,20.49 -243.73,45.37 -20.06,5.14 -39.37,12.43 -58.79,19.35 -19.37,7.04 -39.04,13.37 -57.74,21.92 -18.87,8.14 -37.89,16 -56.62,24.38 L 4338.5,1777 c -72.54,37.81 -142.06,80.37 -208.71,126.27 -132.91,92.35 -255.94,195.08 -378.64,295.68 -61.35,50.37 -123.11,99.59 -186.29,146.52 -63.02,47.14 -128.1,90.91 -195.72,129.77 -67.63,38.69 -137.64,73.36 -211.12,98.03 -73.3,24.92 -148.98,42.78 -226.15,50.79 -76.98,6.47 -155.91,5.59 -233.89,-1.48 -78.05,-7.06 -155.59,-20.69 -231.46,-41.06 -151.86,-40.4 -296.73,-107.61 -427.96,-195.78 -32.74,-22.14 -64.8,-45.36 -95.84,-69.95 -31.24,-24.33 -61.28,-50.22 -90.46,-77.08 -58.18,-53.84 -113.09,-111.79 -160.26,-175.9" /></g></g></svg>